<?xml version="1.0" encoding="utf-8"?>
<svg version="1.1" id="Layer_1" xmlns="http://www.w3.org/2000/svg" xmlns:xlink="http://www.w3.org/1999/xlink" x="0px" y="0px"
	 viewBox="0 0 2272.207 1685.497" enable-background="new 0 0 2272.207 1685.497" xml:space="preserve">
<g>
	<path fill="#2B5DBC" d="M1681.897,43.899c18.199-0.408,36.391-0.742,54.59-1.15c33.403,52.977,66.548,106.11,99.842,159.142
		c25.359,40.434,50.697,80.874,76.042,121.308c3.24,5.458,6.996,10.617,10.005,16.205c-6.656-7.344-12.53-15.395-18.961-22.949
		c-1.783-1.647-1.674-4.226-1.035-6.363c-0.653,0.422-1.286,0.864-1.878,1.3c-8.072-9.025-15.402-18.682-23.16-27.972
		c-58.142-71.183-116.278-142.372-174.4-213.568C1695.958,61.172,1688.757,52.672,1681.897,43.899z"/>
	<path fill="#2B5DBC" d="M1740.107,43.157c20.486,2.437,40.971,4.955,61.43,7.629c40.529,93.581,81.024,187.175,121.526,280.769
		c1.293,3.314,3.138,6.418,4.083,9.868c-3.029-3.981-5.302-8.473-8.092-12.618c-48.601-77.532-97.208-155.058-145.802-232.59
		C1762.226,78.513,1750.983,60.947,1740.107,43.157z"/>
	<path fill="#2B5DBC" d="M1533.365,49.902c48.335-2.035,96.67-4.009,145.012-5.873c58.633,71.605,117.095,143.359,175.666,215.018
		c12.761,15.762,25.794,31.314,38.392,47.192c-4.58-2.736-8.698-6.159-13.108-9.147c-97.95-69.93-195.886-139.881-293.83-209.825
		C1568.136,74.791,1550.604,62.54,1533.365,49.902z"/>
	<path fill="#2B5DBC" d="M1454.914,68.264c24.589-6.139,49.24-12.046,73.857-18.083c95.064,97.052,190.054,194.171,285.077,291.264
		c2.736,2.981,5.948,5.54,8.371,8.807c-23.133-17.471-46.028-35.309-69.066-52.916
		C1653.747,220.96,1554.273,144.694,1454.914,68.264z"/>
	<path fill="#2B5DBC" d="M1804.586,51.093c11.168,1.32,22.35,2.518,33.492,4.043c27.611,86.693,55.298,173.366,82.957,260.039
		c1.613,5.574,3.805,10.964,5.227,16.593c-2.654-4.832-4.397-10.086-6.69-15.082C1881.213,228.168,1842.951,139.603,1804.586,51.093
		z"/>
	<path fill="#2B5DBC" d="M1841.222,56.068c19.131,6.724,38.215,13.591,57.292,20.472c8.324,63.186,16.348,126.405,24.576,189.605
		c3.212,25.576,6.731,51.126,9.814,76.716c-2.253-5.084-3.403-10.576-5.275-15.803
		C1898.847,236.723,1869.922,146.429,1841.222,56.068z"/>
	<path fill="#2B5DBC" d="M1542.24,59.852c7.5,4.819,14.558,10.331,21.895,15.415c109.193,77.975,218.38,155.956,327.58,233.931
		c2.158,1.525,4.349,3.042,6.418,4.716c-20.05,16.123-40.127,32.219-60.212,48.301c-95.595-97.664-191.184-195.335-286.772-293.013
		C1548.257,66.004,1544.867,63.275,1542.24,59.852z"/>
	<path fill="#2B5DBC" d="M1450.327,69.509c0.728-0.361,1.572-0.272,2.192,0.327c120.124,92.206,240.22,184.466,360.343,276.686
		c2.185,1.749,4.648,3.206,6.479,5.377c-5.683-2.613-10.93-6.091-16.457-9.004c-144.992-81.391-290.018-162.694-434.969-244.147
		c5.05-2.205,10.379-3.723,15.545-5.656C1405.749,85.224,1428.045,77.377,1450.327,69.509z"/>
	<path fill="#2B5DBC" d="M1903.713,79.031c13.741,6.479,27.339,13.285,41.019,19.9c1.933,0.994,3.995,1.763,5.819,2.995
		c1.082,1.361,1.422,3.158,2.096,4.744c11.039,29.789,22.153,59.558,33.219,89.334c3.696,10.175,7.725,20.241,11.23,30.477
		c-3.512-4.628-6.227-9.807-9.467-14.619c-15.647-24.733-31.293-49.465-46.94-74.198
		C1928.385,118.11,1915.855,98.686,1903.713,79.031z"/>
	<path fill="#2B5DBC" d="M1902.74,87.293c4.955,11.937,9.317,24.147,14.061,36.18c19.24,49.975,38.433,99.965,57.707,149.92
		c0.47,1.627,1.878,3.423,0.735,5.07c-12.203,24.331-24.365,48.689-36.527,73.047c-0.49,0.892-1,1.776-1.49,2.647
		c-8.603-65.214-16.872-130.475-25.372-195.703C1908.859,134.73,1905.626,111.025,1902.74,87.293z"/>
	<path fill="#2B5DBC" d="M1906.613,89.199c3.43,4.458,6.043,9.494,9.195,14.156c25.672,40.583,51.35,81.16,77.029,121.737
		c2.961,4.982,6.479,9.678,9.12,14.83c-2.328,25.461-4.887,50.915-7.33,76.369c-2.498-5.118-4.186-10.597-6.364-15.858
		c-26.339-68.025-52.691-136.049-79.003-204.094C1908.348,93.97,1907.273,91.656,1906.613,89.199z"/>
	<path fill="#2B5DBC" d="M1310.8,128.598c17.777-9.515,35.554-19.029,53.338-28.537c35.676,38.61,71.162,77.396,106.771,116.06
		c7.561,8.364,15.374,16.511,22.813,24.978c-22.915-11.985-45.647-24.345-68.501-36.452
		c-42.707-22.827-85.448-45.586-128.141-68.433C1301.387,133.253,1306.267,131.204,1310.8,128.598z"/>
	<path fill="#2B5DBC" d="M1954.914,105.029c12.121,8.957,23.977,18.267,35.996,27.36c2.225,1.872,4.907,3.287,6.792,5.54
		c0.939,17.137,1.436,34.315,2.287,51.466c0.47,13.7,1.259,27.387,1.654,41.087C1985.942,188.714,1970.445,146.858,1954.914,105.029
		z"/>
	<path fill="#2B5DBC" d="M1375.741,106.383c10.944,5.737,21.575,12.087,32.423,18.022
		c129.026,72.421,258.058,144.836,387.097,217.236c8.943,5.179,18.151,9.937,26.992,15.293
		c-14.517-4.859-28.87-10.263-43.326-15.313c-71.244-25.393-142.494-50.765-213.738-76.164c-4.485-1.906-9.528-2.681-13.591-5.431
		C1492.993,208.805,1434.292,157.666,1375.741,106.383z"/>
	<path fill="#2B5DBC" d="M1385.467,118.859c3.668,2.205,6.479,5.547,9.821,8.194c40.93,35.744,81.854,71.489,122.785,107.226
		c9.276,8.242,18.839,16.178,27.945,24.596c-13.578-4.124-27.115-8.371-40.692-12.502c-1.946-0.619-4.151-0.994-5.479-2.688
		c-34.764-37.827-69.522-75.654-104.3-113.467C1392.28,126.352,1388.394,122.99,1385.467,118.859z"/>
	<path fill="#2B5DBC" d="M1245.498,166.581c16.13-9.664,32.253-19.335,48.464-28.857c42.741,32.634,85.489,65.255,128.229,97.882
		c4.308,3.437,8.902,6.513,13.054,10.148c-53.868-22.337-107.676-44.851-161.51-67.262
		C1264.336,174.497,1254.801,170.787,1245.498,166.581z"/>
	<path fill="#2B5DBC" d="M2000.608,140.42c5.384,4.798,10.365,10.025,15.613,14.973c4.642,4.601,9.528,8.963,14.061,13.687
		c-5.996,14.646-11.835,29.354-17.757,44.034c-2.763,6.438-4.968,13.142-8.051,19.431
		C2003.195,201.836,2001.813,171.134,2000.608,140.42z"/>
	<path fill="#2B5DBC" d="M1310.051,146.347c10.386,5.084,20.445,10.869,30.708,16.212c49.404,26.352,98.787,52.739,148.191,79.091
		c2.151,1.13,4.328,2.226,6.343,3.621c-16.695,1.572-33.41,2.974-50.118,4.254c-3.702-2.11-6.813-5.132-10.304-7.568
		c-38.712-29.565-77.444-59.102-116.156-88.674C1315.87,150.921,1312.569,149.083,1310.051,146.347z"/>
	<path fill="#2B5DBC" d="M1242.503,168.433c52.861,21.847,105.607,43.986,158.427,65.942c10.644,4.574,21.486,8.718,32.035,13.503
		c-80.588-13.299-161.17-26.699-241.738-40.127C1208.167,194.458,1225.448,181.581,1242.503,168.433z"/>
	<path fill="#3D3D55" d="M2032.95,172.23c7.289,8.296,14.197,16.926,21.337,25.359c-8.31,8.684-16.47,17.518-24.835,26.141
		C2030.656,206.566,2031.786,189.395,2032.95,172.23z"/>
	<path fill="#2B5DBC" d="M2023.374,193.294c2.232-5.166,3.974-10.549,6.472-15.599c-0.987,16.273-2.164,32.525-3.26,48.791
		c-6.799,3.437-13.693,6.697-20.54,10.039C2011.743,222.083,2017.623,207.716,2023.374,193.294z"/>
	<path fill="#3D3D55" d="M2030.166,226.956c8.038-8.426,15.919-17.008,24.086-25.311c-1.382,11.468-2.688,22.949-4.07,34.424
		C2043.451,233.15,2036.816,230.032,2030.166,226.956z"/>
	<path fill="#3C3C55" d="M2057.907,206.913c2.872,7.024,5.186,14.286,7.929,21.377c0.456,1.443,1.3,2.906,0.946,4.478
		c-1.511,8.657-3.029,17.314-4.505,25.978c-0.49,2.668-0.688,5.411-1.552,8.004C2059.581,246.822,2058.765,226.854,2057.907,206.913
		z"/>
	<path fill="#2B5DBC" d="M1188.179,210.18c5.383,0.374,10.685,1.722,16.041,2.464c50.193,8.33,100.386,16.681,150.587,25.005
		c14.428,2.573,28.979,4.478,43.353,7.344c-74.252-7.854-148.518-15.633-222.763-23.535
		C1179.474,217.51,1183.796,213.787,1188.179,210.18z"/>
	<path fill="#35354E" d="M2055.402,215.801c0.762,6.547,0.538,13.183,1.089,19.757c0.163,8.555,1.096,17.096,0.98,25.651
		c-1.096-3.505-1.436-7.18-2.266-10.746c-0.776-4.213-1.885-8.371-2.457-12.611C2053.578,230.502,2054.307,223.124,2055.402,215.801
		z"/>
	<path fill="#2B5DBC" d="M1149.48,238.873c7.589-4.927,15.027-10.093,22.691-14.898c65.309,27.36,130.652,54.651,195.975,81.983
		c2.995,1.3,6.132,2.321,9.018,3.9c-86.761-16.3-173.475-32.94-260.215-49.356C1127.668,253.111,1138.659,246.108,1149.48,238.873z"
		/>
	<path fill="#2B5DBC" d="M1193.882,226.405c7.105,0.082,14.136,1.375,21.214,1.967c75.593,7.949,151.186,15.953,226.785,23.902
		c-8.473,8.773-17.226,17.273-25.869,25.869c-1.531,1.885-4.049,0.402-6.003,0.279
		C1337.955,261.122,1265.929,243.692,1193.882,226.405z"/>
	<path fill="#2B5DBC" d="M1188.553,227.814c74.66,18.022,149.341,36.01,224.022,53.964c-4.54,6.622-9.726,12.788-14.524,19.22
		c-2.961,3.621-5.37,7.745-8.957,10.808c-64.411-26.815-128.733-53.862-193.13-80.718
		C1193.446,230.1,1190.928,229.1,1188.553,227.814z"/>
	<path fill="#2B5DBC" d="M2004.767,240.126c6.901-3.396,13.809-6.785,20.771-10.079c-9.147,26.904-18.369,53.787-27.577,80.67
		c1.245-15.456,2.974-30.885,4.376-46.334C2003.195,256.303,2003.773,248.19,2004.767,240.126z"/>
	<path fill="#E6E18C" d="M2028.199,230.972c4.186,5.778,7.439,12.189,11.298,18.199c4.009,6.996,8.609,13.659,12.271,20.853
		c-3.777-2.675-6.69-6.316-10.045-9.447c-5.853-5.554-11.468-11.359-16.804-17.403
		C2025.736,239.037,2027.104,235.035,2028.199,230.972z"/>
	<path fill="#E6E18C" d="M2031.766,230.917c4.186,1.252,7.949,3.553,11.992,5.2c2.103,1.021,4.437,1.749,6.241,3.301
		c1.579,5.268,2.273,10.78,3.505,16.15c1.007,5.683,2.464,11.277,3.348,16.974c-7.153-11.447-14.054-23.072-21.057-34.615
		C2034.352,235.647,2032.909,233.36,2031.766,230.917z"/>
	<path fill="#3D3D55" d="M2066.516,249.994c0.653-2.988,0.681-6.132,1.872-8.977c2.804,17.933,5.39,35.908,8.065,53.868
		c-5.145-4.893-10.093-10.005-15.082-15.048C2063.059,269.881,2064.808,259.944,2066.516,249.994z"/>
	<path fill="#3D3D55" d="M2024.15,246.441c7.316,7.534,14.381,15.32,21.636,22.915c-8.643,8.773-17.6,17.246-26.441,25.821
		C2020.876,278.926,2022.564,262.694,2024.15,246.441z"/>
	<path fill="#E9C539" d="M1481.192,249.191c6.35-0.354,12.693-1.395,19.05-1.314c4.07,1.953,7.725,4.676,11.659,6.915
		c11.754,7.282,23.705,14.272,35.356,21.711c-29.762-7.507-59.443-15.388-89.184-22.977c-2.103-0.517-4.192-1.055-6.22-1.756
		C1461.604,250.709,1471.418,250.157,1481.192,249.191z"/>
	<path fill="#E9C538" d="M1511.75,251.369c10.107,2.532,19.941,6.084,29.953,8.997c3.09,0.919,6.214,1.776,9.229,2.961
		c1.082,4.635,2.239,9.263,3.09,13.952c-9.542-5.594-18.886-11.522-28.36-17.226C1521.067,257.086,1516.201,254.54,1511.75,251.369z
		"/>
	<path fill="#E9C539" d="M1449.667,254.438c24.984,6.595,49.989,13.115,74.98,19.655c1.232,0.17,1.872,1.259,2.382,2.287
		c10.134,20.234,20.418,40.393,30.626,60.593c2.484,5.138,5.349,10.107,7.575,15.368c-3.335-2.191-6.152-5.05-9.249-7.541
		c-34.73-29.49-69.563-58.871-104.286-88.381C1450.98,255.779,1450.307,255.112,1449.667,254.438z"/>
	<path fill="#E9C539" d="M1427.514,270.555c5.404-5.241,10.638-10.665,16.218-15.728c4.186,13.598,8.181,27.271,12.142,40.944
		c-12.795-4.927-25.522-10.052-38.215-15.238C1420.735,277.006,1424.254,273.903,1427.514,270.555z"/>
	<path fill="#2A5DBC" d="M2013.859,273.631c2.232-5.941,3.907-12.114,6.527-17.899c-1,13.557-2.661,27.067-3.872,40.611
		c0.075,2.11-1.715,3.437-2.981,4.853c-4.9,5.009-9.487,10.338-14.558,15.177C2003.794,302.072,2008.905,287.875,2013.859,273.631z"
		/>
	<path fill="#E9C539" d="M1447.237,256.487c3.913,2.709,7.303,6.098,11.032,9.052c20.846,17.722,41.72,35.404,62.6,53.093
		c0.762,0.687,1.463,1.45,2.164,2.232c-12.781-4.329-25.325-9.385-38.011-14.006c-8.575-3.253-17.198-6.363-25.74-9.698
		c-2.715-8.29-4.995-16.722-7.561-25.066C1450.252,266.886,1448.476,261.761,1447.237,256.487z"/>
	<path fill="#2B5DBC" d="M1086.826,286.494c8.977-7.861,17.777-15.953,26.863-23.691c72.122,36.847,144.257,73.687,216.399,110.507
		c3.226,1.722,6.609,3.165,9.705,5.138c-109.69-8.004-219.387-16.041-329.084-24.052c3.192-3.525,7.037-6.377,10.501-9.624
		C1043.084,325.349,1064.965,305.938,1086.826,286.494z"/>
	<path fill="#2B5DBC" d="M1556.519,265.226c74.313,26.407,148.579,52.936,222.872,79.37c5.662,1.946,11.339,3.873,16.906,6.091
		c-6.962-1.599-13.748-3.859-20.622-5.785c-59.483-16.974-118.973-33.934-178.463-50.908c-7.16-2.178-14.483-3.886-21.54-6.316
		C1569.083,280.389,1562.828,272.766,1556.519,265.226z"/>
	<path fill="#2B5DBC" d="M1131.384,266.165c5.908,0.619,11.686,2.144,17.539,3.131c79.772,15.17,159.55,30.272,239.315,45.49
		c-4.567,14.381-9.644,28.605-14.633,42.85c-77.192-28.864-154.269-58.04-231.413-87.04
		C1138.618,269.037,1134.684,268.275,1131.384,266.165z"/>
	<path fill="#E8C436" d="M1554.804,267.723c2.525,2.45,4.682,5.261,6.969,7.942c2.47,3.042,5.24,5.86,7.486,9.093
		c-3.968-1.695-8.065-3.26-11.713-5.567C1556.213,275.496,1555.621,271.555,1554.804,267.723z"/>
	<path fill="#3D3D55" d="M2047.698,271.371c3.342,2.75,6.54,5.669,9.725,8.603c-11.107,4.819-22.139,9.814-33.294,14.51
		C2031.813,286.616,2039.871,279.103,2047.698,271.371z"/>
	<path fill="#2B5DBC" d="M1137.448,271.827c5.315,1.47,10.324,3.852,15.524,5.676c72.87,27.455,145.775,54.814,218.618,82.344
		c-8.29,6.391-16.708,12.618-25.107,18.852c-66.711-34.016-133.375-68.113-200.079-102.142
		C1143.41,274.992,1140.245,273.733,1137.448,271.827z"/>
	<path fill="#E9C538" d="M1532.882,275.849c6.309,1.239,12.448,3.185,18.723,4.58c1.593,0.497,3.621,0.585,4.553,2.212
		c3.832,5.703,7.616,11.434,11.447,17.137c2.341,3.764,5.138,7.262,7.139,11.236c-3.784-2.484-6.99-5.703-10.501-8.521
		c-9.127-7.663-18.219-15.368-27.359-22.997C1535.475,278.354,1534.121,277.163,1532.882,275.849z"/>
	<path fill="#2B5DBC" d="M1974.916,285.037c0.721-1.511,1.497-3.008,2.341-4.465c5.485,13.782,11.093,27.523,16.395,41.38
		c-17.92,11.087-35.751,22.33-53.732,33.301C1951.443,331.78,1963.306,308.47,1974.916,285.037z"/>
	<path fill="#3D3D55" d="M2029.948,295.035c9.8-4.56,19.771-8.766,29.687-13.074c4.553,4.662,9.317,9.127,13.748,13.911
		c-6.792,0.98-13.653,0.449-20.472,0.565c-6.384-0.075-12.768,0.02-19.145,0.014C2032.31,296.553,2031.065,295.838,2029.948,295.035
		z"/>
	<path fill="#E9C539" d="M1393.205,311.907c6.956-9.562,14.313-18.832,21.513-28.217c3.022,3.77,5.084,8.201,7.67,12.271
		c3.001,5.05,6.003,10.1,9.038,15.129C1418.687,311.424,1405.946,311.682,1393.205,311.907z"/>
	<path fill="#E9C539" d="M1418.578,284.017c5.52,1.831,10.808,4.294,16.259,6.329c6.54,2.695,13.197,5.118,19.676,7.976
		c-6.622,4.254-13.489,8.099-20.22,12.169c-3.056-4.682-5.778-9.576-8.671-14.367
		C1423.314,292.061,1420.674,288.195,1418.578,284.017z"/>
	<path fill="#E9C539" d="M1533.964,283.642c3.641,2.961,6.418,6.826,9.651,10.216c10.665,11.992,21.615,23.739,32.117,35.874
		c-1.953,8.208-4.022,16.395-6.125,24.562c-4.655-8.412-8.739-17.137-13.149-25.685c-6.003-11.897-12.094-23.752-18.063-35.67
		C1536.911,289.842,1535.067,286.909,1533.964,283.642z"/>
	<path fill="#2A5DBE" d="M1563.502,285.303c3.253,1.259,6.391,2.818,9.535,4.363c2.607,1.599,4.403,4.179,6.615,6.261
		c16.205,16.681,32.348,33.43,48.594,50.084c3.205,3.423,6.785,6.52,9.698,10.216c-7.337-6.064-13.789-13.115-20.785-19.553
		c-16.15-15.381-32.253-30.817-48.41-46.198C1566.973,288.767,1565.121,287.147,1563.502,285.303z"/>
	<path fill="#E8C435" d="M1544.091,289.781c3.954,2.307,7.112,5.717,10.74,8.487c3.178,2.927,7.35,5.077,9.229,9.168
		c2.028,4.043,4.41,7.908,6.302,12.019c-6.881-7.391-13.53-15.014-20.336-22.48C1547.984,294.634,1545.623,292.524,1544.091,289.781
		z"/>
	<path fill="#2A5DBD" d="M1565.258,291.156c2.43,1.633,4.342,3.886,6.493,5.86c25.066,23.929,50.139,47.852,75.191,71.802
		c5.002,5.002,10.549,9.481,15.259,14.769c-6.255-4.587-11.91-9.937-18.001-14.742c-14.415-11.897-28.816-23.807-43.231-35.704
		c-5.778-4.893-11.801-9.515-17.443-14.558c-4.356-5.914-8.188-12.217-12.353-18.281
		C1569.246,297.227,1566.911,294.395,1565.258,291.156z"/>
	<path fill="#2B5DBC" d="M1587.976,294.293c9.692,2.321,19.193,5.451,28.823,8.051c71.849,20.52,143.706,40.992,215.555,61.491
		c0.476,0.218,0.973,0.456,1.477,0.708c-19.349,9.406-38.637,18.934-57.938,28.421c-29.088-15.075-58.034-30.429-87.061-45.613
		C1655.231,329.629,1621.488,312.152,1587.976,294.293z"/>
	<path fill="#2B5DBC" d="M1582.3,294.593c3.743,1.531,7.187,3.702,10.808,5.513c57.605,30.204,115.189,60.457,172.787,90.681
		c1.878,0.973,3.845,1.844,5.533,3.158c-26.1,5.077-52.208,10.12-78.315,15.163c-31.436-32.314-62.771-64.731-94.152-97.099
		C1593.427,306.176,1587.594,300.623,1582.3,294.593z"/>
	<path fill="#23223C" d="M2024.204,297.472c1.858-0.926,3.791-1.688,5.744-2.436c1.116,0.803,2.362,1.518,3.818,1.416
		c6.377,0.007,12.761-0.088,19.145-0.014c6.82-0.116,13.68,0.415,20.472-0.565c0.64,0.422,1.116,1.034,1.708,1.579
		C2058.132,297.513,2041.165,297.444,2024.204,297.472z"/>
	<path fill="#3A3A3C" d="M1455.316,300.997c0.667-0.368,1.776-1.456,2.3-0.238c8.929,14.258,17.94,28.476,26.747,42.802
		c-16.13-10.182-31.988-20.792-48.036-31.116C1442.575,308.49,1449.027,304.883,1455.316,300.997z"/>
	<path fill="#3D3D55" d="M2020.352,300.296c18.982-0.075,37.977-0.095,56.958,0.02c4.921,33.002,9.869,66.003,14.878,98.991
		c-15.722-21.296-31.103-42.857-46.702-64.247C2037.129,323.457,2028.649,311.941,2020.352,300.296z"/>
	<path fill="#3A3A3C" d="M1460.985,300.909c22.241,8.051,44.313,16.579,66.555,24.624c-1.817,1.756-4.322,2.525-6.432,3.845
		c-10.291,5.465-20.397,11.298-30.81,16.531c-2.702-1.477-3.88-4.397-5.492-6.84C1476.883,326.335,1468.818,313.69,1460.985,300.909
		z"/>
	<path fill="#8186B0" d="M1997.001,322.824c6.404-7.316,13.258-14.251,19.948-21.323c9.025,25.447,17.559,51.064,26.386,76.58
		c25.685,74.817,51.316,149.647,77.002,224.464c1.32,4.124,3.192,8.092,4.009,12.373c-2.518-4.519-4.104-9.474-6.296-14.143
		C2077.685,508.127,2037.394,415.458,1997.001,322.824z"/>
	<path fill="#3D3D55" d="M2080.714,304.747c7.854,10.542,15.15,21.513,22.793,32.219c11.658,16.661,23.371,33.274,35.009,49.948
		c-14.32,5.377-28.693,10.597-42.992,16.007C2090.405,370.226,2085.6,337.477,2080.714,304.747z"/>
	<path fill="#8186B0" d="M2022.224,307.783c7.085,9.147,13.625,18.716,20.506,28.033c16.402,22.609,32.777,45.245,49.2,67.841
		c1.769,2.484,1.769,5.669,2.389,8.555c12.414,69.883,24.896,139.758,37.33,209.641c0.572,3.131,1.334,6.255,1.457,9.453
		c-2.287-5.622-3.893-11.488-5.955-17.192c-33.172-96.589-66.269-193.205-99.413-289.801
		C2025.913,318.794,2023.789,313.377,2022.224,307.783z"/>
	<path fill="#2A5DBD" d="M1568.395,309.647c28.775,23.691,57.455,47.532,86.251,71.223c2.375,1.994,5.002,3.743,7.051,6.118
		c-3.498-1.899-6.547-4.492-9.814-6.738c-23.97-16.879-47.92-33.784-71.911-50.629c-2.784-1.953-3.655-5.465-5.397-8.215
		C1572.547,317.467,1570.24,313.676,1568.395,309.647z"/>
	<path fill="#E9C539" d="M1394.907,314.697c8.337-0.49,16.708-0.265,25.059-0.613c3.941-0.279,7.908-0.333,11.869-0.218
		c-1.926,7.99-3.791,16.021-6.227,23.868c-8.296-6.003-16.491-12.135-24.746-18.178
		C1398.8,318.032,1396.527,316.719,1394.907,314.697z"/>
	<path fill="#3A3A3C" d="M1434.51,314.595c10.338,6.302,20.322,13.183,30.538,19.696c5.901,3.947,12.012,7.595,17.79,11.727
		c-18.172-2.368-36.309-5.023-54.467-7.466C1430.386,330.562,1432.523,322.599,1434.51,314.595z"/>
	<path fill="#E9C539" d="M1376.238,359.051c4.832-14.027,9.249-28.204,14.374-42.122c10.529,17.641,20.744,35.479,31.11,53.215
		c1.974,3.525,4.26,6.881,5.976,10.556c-12.169-4.785-24.106-10.127-36.214-15.048
		C1386.427,363.38,1381.166,361.59,1376.238,359.051z"/>
	<path fill="#E9C539" d="M1394.907,318.645c6.717,4.567,13.108,9.596,19.689,14.36c3.464,2.709,7.276,4.989,10.563,7.915
		c1.041,4.56,0.98,9.317,1.599,13.952c0.558,7.092,1.388,14.156,1.831,21.248c-3.104-4.267-5.37-9.065-8.147-13.537
		C1411.962,347.924,1403.298,333.359,1394.907,318.645z"/>
	<path fill="#2A5DBC" d="M1877.041,334.196c6.554-5.152,12.904-10.556,19.574-15.565c-2.13,6.35-4.458,12.638-6.704,18.941
		c-0.687,2.062-3.206,2.307-4.853,3.287c-12.4,5.533-24.617,11.522-37.106,16.831
		C1857.495,349.68,1867.377,342.064,1877.041,334.196z"/>
	<path fill="#2B5DBC" d="M1901.828,319.285c11.175,13.06,21.888,26.536,32.872,39.767c-6.159,8.48-12.319,16.967-18.723,25.263
		C1911.288,362.631,1906.463,340.975,1901.828,319.285z"/>
	<path fill="#2A5DBC" d="M1896.111,328.085c1.048-2.695,1.64-5.588,3.124-8.092c4.124,19.165,8.296,38.331,12.564,57.462
		c-3.988-6.99-7.377-14.313-11.141-21.425c-2.736-5.635-5.948-11.053-8.412-16.797
		C1893.253,335.428,1894.873,331.814,1896.111,328.085z"/>
	<path fill="#3D3D55" d="M1938.866,359.14c17.266-10.733,34.492-21.547,51.833-32.151c-10.229,15.933-20.731,31.695-31.076,47.559
		C1952.729,369.376,1945.685,364.407,1938.866,359.14z"/>
	<path fill="#3A3A3C" d="M1492.898,347.733c12.441-6.826,24.957-13.516,37.392-20.35c4.812,11.019,9.412,22.133,14.17,33.179
		c-13.891-3.362-27.748-6.826-41.631-10.209C1499.52,349.462,1496.117,348.89,1492.898,347.733z"/>
	<path fill="#8186B0" d="M1996.042,327.962c2.988,5.241,4.88,11.019,7.473,16.463c40.107,92.104,80.166,184.228,120.335,276.305
		c0.143,0.381,0.422,1.15,0.565,1.538c-6.398-10.937-12.203-22.214-18.41-33.253c-38.426-69.815-76.818-139.643-115.244-209.457
		c-1.245-1.892-0.544-4.186-0.32-6.248C1992.401,358.207,1994.095,343.071,1996.042,327.962z"/>
	<path fill="#3D3D55" d="M1990.645,332.1c0.769-1.232,1.586-2.443,2.525-3.573c-1.007,9.753-2.375,19.465-3.498,29.204
		c-0.966,6.574-1.314,13.285-2.627,19.785c-13.659,7.881-27.414,15.647-41.21,23.283
		C1960.59,377.788,1975.753,355.029,1990.645,332.1z"/>
	<path fill="#E9C539" d="M1535.006,330.875c7.575,5.799,14.605,12.305,22.017,18.328c3.743,3.314,7.8,6.282,11.373,9.8
		c-2.212,10.27-4.853,20.445-7.241,30.667c-1.946-2.314-2.613-5.356-3.941-8.017c-6.207-13.986-12.325-28.013-18.539-41.999
		C1537.408,336.748,1536.006,333.883,1535.006,330.875z"/>
	<path fill="#2B5DBC" d="M1578.1,331.651c15.157,10.365,30.055,21.112,45.103,31.64c17.048,11.992,34.077,24.011,51.132,36.003
		c1.906,1.327,3.927,2.545,5.533,4.274c-6.779-2.402-13.285-5.54-19.955-8.228c-29.306-12.387-58.673-24.63-87.932-37.119
		C1574.017,349.366,1576.018,340.498,1578.1,331.651z"/>
	<path fill="#3A3A3C" d="M1428.208,341.261c18.92,2.559,37.834,5.213,56.747,7.82c-17.566,11.134-35.404,21.867-53.038,32.893
		C1430.583,368.416,1429.372,354.838,1428.208,341.261z"/>
	<path fill="#2B5DBC" d="M1843.692,362.897c14.932-7.201,30.109-13.938,45.191-20.846c-0.81,7.67-1.729,15.334-2.661,22.997
		C1872.039,364.448,1857.855,363.747,1843.692,362.897z"/>
	<path fill="#2B5DBC" d="M1891.34,343.874c3.212,5.839,6.078,11.869,9.181,17.77c3.457,6.942,7.214,13.734,10.515,20.758
		c-7.221-5.2-14.068-10.903-21.139-16.286c-1.211-0.585-0.83-1.987-0.762-3.035C1889.863,356.676,1890.667,350.285,1891.34,343.874z
		"/>
	<path fill="#3A3A3C" d="M1492.898,350.66c17.341,4.315,34.724,8.453,52.044,12.849c-4.022,10.76-7.901,21.575-11.883,32.348
		C1519.692,380.769,1506.271,365.735,1492.898,350.66z"/>
	<path fill="#3A3A3C" d="M1433.163,384.308c17.62-10.862,35.186-21.82,52.861-32.587c-7.732,18.274-15.613,36.486-23.406,54.733
		C1452.763,399.124,1442.868,391.835,1433.163,384.308z"/>
	<path fill="#3A3A3C" d="M1465.109,407.454c7.84-18.001,15.334-36.153,23.303-54.086c3.212,19.417,6.316,38.855,9.596,58.265
		C1487.038,410.238,1476.067,408.897,1465.109,407.454z"/>
	<path fill="#3A3A3C" d="M1491.121,352.871c13.578,14.85,26.734,30.089,40.223,45.028c-10.195,4.58-20.499,8.902-30.708,13.428
		C1497.505,391.835,1494.17,372.377,1491.121,352.871z"/>
	<path fill="#2B5DBC" d="M1007.66,356.928c108.213,7.711,216.406,15.844,324.62,23.616c-2.212,1.164-4.825,0.817-7.208,1.259
		c-129.236,17.076-258.466,34.199-387.703,51.241C960.659,407.55,984.234,382.307,1007.66,356.928z"/>
	<path fill="#2A5DBC" d="M1573.472,361.828c30.266,12.639,60.429,25.536,90.715,38.133c0.755,0.34,1.504,0.735,2.266,1.15
		c-4.206-0.653-8.14-2.382-12.23-3.478c-23.902-7.18-47.804-14.367-71.707-21.547c-1.634-0.299-2.219-1.946-2.961-3.192
		C1577.576,369.172,1575.364,365.592,1573.472,361.828z"/>
	<path fill="#E9C539" d="M1350.396,379.394c7.5-5.948,15.374-11.434,23.188-16.974c1.47,6.99,2.79,14.02,4.036,21.064
		C1368.521,382.334,1359.435,380.939,1350.396,379.394z"/>
	<path fill="#E9C539" d="M1376.497,362.379c14.313,5.703,28.421,11.944,42.7,17.757c1.715,0.687,3.41,1.47,5.036,2.375
		c-9.344,0.606-18.709,0.531-28.061,0.871c-5.145,0.293-10.304,0.361-15.449,0.449
		C1378.933,376.767,1377.736,369.553,1376.497,362.379z"/>
	<path fill="#3D3D55" d="M1938.076,362.046c6.765,4.798,13.38,9.821,20.077,14.721c-5.295,8.045-10.372,16.246-15.865,24.147
		C1940.826,387.969,1939.465,375.004,1938.076,362.046z"/>
	<path fill="#E8C538" d="M1567.953,372.853c0.946-3.403,1.307-6.983,2.825-10.202c2.464,4.165,4.798,8.412,7.099,12.673
		c-4.363,4.812-8.793,9.617-13.659,13.904C1565.128,383.702,1566.728,378.312,1567.953,372.853z"/>
	<path fill="#2B5DBC" d="M1905.891,407.958c9.855-14.939,19.567-29.966,29.51-44.851c1.599,13.727,3.11,27.475,4.458,41.23
		c-12.407,7.861-24.909,15.572-37.344,23.385c-5.309,3.219-10.447,6.717-15.844,9.773
		C1892.838,427.505,1899.514,417.82,1905.891,407.958z"/>
	<path fill="#2B5DBC" d="M1833.511,367.545c1.967-0.796,3.968-2.593,6.207-1.62c17.893,5.479,35.799,10.923,53.698,16.395
		c2.668,0.871,5.526,1.314,7.99,2.763c-29.204-2.545-58.428-5.03-87.639-7.568C1820.11,373.772,1826.984,370.968,1833.511,367.545z"
		/>
	<path fill="#2A5DBC" d="M1849.273,366.007c11.162,0.225,22.31,1.15,33.471,1.559c2.328,0.157,5.023-0.211,6.833,1.627
		c6.023,4.948,12.489,9.378,18.294,14.585c-13.925-3.859-27.666-8.385-41.516-12.496
		C1860.687,369.43,1854.888,367.98,1849.273,366.007z"/>
	<path fill="#E9C538" d="M1548.08,369.001c4.172,8.303,7.847,16.851,11.781,25.27c-4.24,8.051-8.773,15.946-13.129,23.929
		c0.116-13.183,0.769-26.352,0.892-39.528C1547.637,375.44,1547.705,372.207,1548.08,369.001z"/>
	<path fill="#E8C537" d="M1541.008,382.014c1.334-3.417,2.3-6.99,3.961-10.27c0.048,15.286-0.755,30.565-0.912,45.858
		c-2.076-3.423-3.382-7.228-5.172-10.794c-1.109-2.566-2.593-4.995-3.267-7.718C1536.551,393.155,1539.028,387.643,1541.008,382.014
		z"/>
	<path fill="#2B5DBC" d="M1579.4,377.999c25.311,7.439,50.533,15.163,75.81,22.718c6.888,2.198,13.938,3.954,20.758,6.357
		c-37.269-4.301-74.51-9.12-111.773-13.591C1569.116,388.18,1574.303,383.13,1579.4,377.999z"/>
	<path fill="#2A5DBC" d="M1805.192,381.436c1.49-0.667,2.954-1.763,4.696-1.565c21.37,1.851,42.748,3.689,64.125,5.506
		c6.384,0.742,12.856,0.776,19.206,1.831c-16.178,1.143-32.403,1.593-48.587,2.532c-20.697,0.926-41.386,2.103-62.076,2.961
		C1789.987,388.738,1797.685,385.281,1805.192,381.436z"/>
	<path fill="#2B5DBC" d="M1347.245,381.715c9.739,1.511,19.485,2.947,29.224,4.471c-17.498,18.138-35.302,35.976-52.888,54.032
		c-143.386,146.088-286.772,292.176-430.124,438.298c-9.515,9.583-18.893,19.295-28.319,28.959
		c-2.682,2.709-5.254,5.533-8.113,8.058c7.949-9.256,16.45-18.015,24.664-27.026c139.881-152.315,279.789-304.603,419.663-456.919
		C1316.673,414.989,1331.871,398.267,1347.245,381.715z"/>
	<path fill="#8186B0" d="M1970.492,399.743c5.778-6.193,11.441-12.502,17.301-18.621c2.491,5.118,3.818,10.712,5.846,16.028
		c29.81,86.326,59.592,172.665,89.422,258.984c1.946,6.084,4.403,12.012,6.064,18.185c-3.117-4.199-5.322-8.977-8.058-13.414
		c-45.164-78.016-90.361-156.011-135.525-234.027C1953.675,417.67,1962.21,408.823,1970.492,399.743z"/>
	<path fill="#2B5DBC" d="M936.049,435.917c129.795-17.103,259.589-34.349,389.384-51.446c-5.104,1.933-10.515,2.852-15.722,4.431
		c-152.465,41.257-304.957,82.419-457.402,123.724c26.502-24.978,53.31-49.628,79.88-74.538
		C933.265,437.046,934.429,435.923,936.049,435.917z"/>
	<path fill="#3D3D55" d="M1942.847,405.637c12.781-7.167,25.461-14.531,38.317-21.547c-7.915,9.004-16.273,17.62-24.331,26.502
		c-4.063,4.192-7.793,8.711-11.999,12.754C1944.161,417.446,1943.446,411.545,1942.847,405.637z"/>
	<path fill="#E9C539" d="M1409.111,385.798c6.261-0.007,12.516-0.749,18.784-0.47c-3.001,4.39-6.765,8.187-10.052,12.359
		c-2.988,3.41-5.737,7.017-8.8,10.359c-4.342-3.103-8.242-6.779-12.4-10.114c-4.478-3.852-9.161-7.459-13.523-11.441
		C1391.783,386.315,1400.44,385.859,1409.111,385.798z"/>
	<path fill="#2B5DBC" d="M1202.042,420.78c42.523-11.454,85.012-23.086,127.569-34.417c-4.145,2.389-8.698,3.947-12.992,6.037
		c-169.473,76.491-338.925,153.05-508.425,229.48c9.984-26.522,20.213-52.956,30.272-79.452c3.389-8.65,6.52-17.409,10.011-26.019
		C966.321,484.49,1084.185,452.666,1202.042,420.78z"/>
	<path fill="#E9C539" d="M1431.005,386.213c6.084,4.233,11.856,8.902,17.845,13.271c3.335,2.586,6.922,4.88,10.018,7.772
		c-7.738,0.619-15.517,0.265-23.256,0.762c-7.738,0.272-15.483,0.34-23.215,0.524
		C1418.38,400.928,1424.778,393.632,1431.005,386.213z"/>
	<path fill="#2B5DBC" d="M1359.496,407.386c6.731-6.717,13.217-13.7,20.104-20.247c5.887,4.989,11.842,9.896,17.763,14.85
		c3.192,2.756,6.711,5.193,9.331,8.555c-148.735,138.173-297.518,276.305-446.267,414.47c-29.177,27.04-58.245,54.195-87.483,81.167
		c-0.483-0.504-0.96-1.001-1.422-1.484C1034.121,738.873,1196.863,573.184,1359.496,407.386z"/>
	<path fill="#2B5DBC" d="M1888.196,390.277c2.974-0.218,5.948-0.476,8.95-0.313c-35.431,7.296-70.869,14.639-106.321,21.833
		c-1.926,0.054-2.947-1.919-3.9-3.274c-2.804-4.322-5.867-8.46-8.555-12.843C1814.972,393.809,1851.587,392.073,1888.196,390.277z"
		/>
	<path fill="#3D3D55" d="M2096.21,405.44c14.367-5.241,28.666-10.672,43.033-15.919c0.388,19.07,0.408,38.147,0.653,57.217
		c-0.048,8.766,0.497,17.546,0.163,26.305c-1.647,8.228-0.653,16.681-0.592,25.012c-0.653-0.102-1.28-0.184-1.865-0.361
		C2123.849,466.924,2109.876,436.25,2096.21,405.44z"/>
	<path fill="#2B5DBC" d="M1319.062,394.21c3.008-1.32,5.894-2.967,9.052-3.947c-3.968,2.954-8.392,5.213-12.495,7.956
		c-162.361,101.938-324.721,203.87-487.082,305.801c-21.922,13.673-43.687,27.605-65.704,41.114
		c14.211-39.209,28.802-78.288,43.108-117.469c0.415-1.055,0.762-2.355,1.987-2.722
		C978.306,548.03,1148.684,471.123,1319.062,394.21z"/>
	<path fill="#2A5CBC" d="M1817.817,409.027c27.714-5.683,55.413-11.468,83.14-17.062c-5.125,2.913-10.808,4.676-16.143,7.16
		c-5.901,2.498-11.795,5.002-17.682,7.514c-2.852,1.177-5.656,2.804-8.834,2.743c-16.885,0.558-33.764,1.565-50.643,2.008
		C1810.902,410.088,1814.42,409.809,1817.817,409.027z"/>
	<path fill="#2B5DBC" d="M1320.049,398.573c3.24-1.885,6.187-4.288,9.624-5.826c-3.389,3.587-7.521,6.37-11.148,9.705
		c-164.015,139.309-328.036,278.612-492.05,417.914c-23.596,19.982-47.083,40.1-70.754,59.994
		c1.647-35.635,3.648-71.257,5.445-106.886c0.252-8.194,1.225-16.375,0.96-24.569c92.124-57.993,184.384-115.781,276.563-173.692
		C1132.466,516.328,1226.257,457.45,1320.049,398.573z"/>
	<path fill="#295DBD" d="M1885.868,401.554c6.568-2.709,13.047-5.662,19.648-8.31c-4.914,4.22-10.29,7.868-15.334,11.937
		c-1.878,1.273-3.553,3.376-6.03,3.206c-5.091,0.068-10.168,0.551-15.252,0.572C1874.387,406.141,1880.24,404.092,1885.868,401.554z
		"/>
	<path fill="#2B5DBC" d="M1898.623,402.044c3.838-2.838,7.459-5.969,11.441-8.616c-8.453,14.279-17.28,28.353-25.958,42.496
		c1.014-8.405,2.035-16.831,3.417-25.175C1890.952,407.55,1894.974,405.011,1898.623,402.044z"/>
	<path fill="#3A3A3C" d="M2142.136,394.387c0.789,1.368,1.749,2.75,2.001,4.356c-1.354,7.534-0.436,15.225-0.681,22.827
		c-0.272,7.575,0.994,15.272-0.728,22.738C2142.232,427.682,2142.341,411.028,2142.136,394.387z"/>
	<path fill="#2B5DBC" d="M1562.862,395.966c35.336,4.41,70.693,8.684,106.042,13.04c3.301,0.456,6.663,0.613,9.909,1.456
		c-28.557,2.77-57.149,5.322-85.72,8.011c-15.054,1.307-30.082,2.961-45.143,4.077c2.77-5.247,5.479-10.522,8.249-15.776
		C1558.22,403.058,1559.881,399.063,1562.862,395.966z"/>
	<path fill="#2B5DBC" d="M1769.202,401.962c2.103-1.838,4.179-3.716,6.398-5.438c3.702,5.465,7.391,10.944,11.114,16.409
		c-14.197,5.533-28.544,10.692-42.795,16.096c-3.226,1.143-6.364,2.525-9.637,3.498
		C1745.77,422.176,1757.585,412.178,1769.202,401.962z"/>
	<path fill="#2B5DBC" d="M1696.094,411.259c24.889-4.751,49.744-9.732,74.66-14.381c-14.211,12.897-28.939,25.236-43.319,37.956
		c-7.051-4.982-13.83-10.331-20.778-15.449C1703.158,416.642,1699.415,414.213,1696.094,411.259z"/>
	<path fill="#2B5DBC" d="M1318.559,405.916c3.553-2.736,6.581-6.146,10.379-8.555c-3.029,4.124-6.915,7.527-10.236,11.407
		C1153.721,588.402,988.726,768.029,823.738,947.65c-8.589,9.161-16.81,18.682-25.617,27.632
		c-14.068-30.483-28.231-60.926-42.278-91.416C943.385,724.513,1130.989,565.235,1318.559,405.916z"/>
	<path fill="#3D3D55" d="M2144.137,398.743c2.906,5.091,5.036,10.583,7.643,15.83c8.562,18.233,17.001,36.527,25.638,54.726
		c-11.325,12.611-22.629,25.257-34.125,37.725c-0.327-17.825-0.327-35.649-0.626-53.467c0.041-3.083-0.272-6.18,0.061-9.249
		c1.722-7.466,0.456-15.163,0.728-22.738C2143.702,413.968,2142.783,406.277,2144.137,398.743z"/>
	<path fill="#E9C539" d="M1514.275,408.332c4.995-2.089,9.875-4.485,14.946-6.404c-4.716,7.514-10.127,14.578-15.123,21.901
		c-3.246,4.424-6.193,9.065-9.521,13.421c-1.28-7.663-2.307-15.368-3.41-23.052C1505.38,411.919,1509.905,410.299,1514.275,408.332z
		"/>
	<path fill="#E9C539" d="M1526.117,411.361c2.43-3.301,4.471-6.908,7.303-9.903c2.232,4.397,4.097,8.963,6.214,13.414
		c1.191,2.77,2.831,5.383,3.484,8.364c-11.863,4.75-23.582,9.868-35.465,14.565C1513.656,428.886,1520.012,420.209,1526.117,411.361
		z"/>
	<path fill="#3D3D55" d="M1890.197,438.619c16.62-10.535,33.362-20.908,50.05-31.348c0.783,6.112,1.497,12.237,2.055,18.369
		C1924.92,429.9,1907.593,434.44,1890.197,438.619z"/>
	<path fill="#E9C539" d="M1414.399,411.347c15.272-0.524,30.558-0.96,45.844-1.273c-4.464,6.629-9.48,12.884-14.04,19.458
		c-5.71-2.858-11.107-6.302-16.715-9.351C1424.499,417.167,1419.231,414.614,1414.399,411.347z"/>
	<path fill="#E9C538" d="M1463.789,410.17c9.76,0.912,19.478,2.307,29.19,3.6c-4.975,2.259-10.304,3.593-15.409,5.506
		c-9.038,2.981-17.947,6.363-27.047,9.133C1454.662,422.142,1459.229,416.146,1463.789,410.17z"/>
	<path fill="#8186B0" d="M2001.078,409.755c1.586,2.321,2.586,4.975,3.709,7.548c38.821,85.631,77.764,171.215,116.544,256.867
		c-3.941,2.375-8.126,4.295-12.162,6.479c-4.206,2.11-8.242,4.526-12.55,6.404c-31.116-89.715-61.974-179.518-93.029-269.26
		C2002.623,415.152,2001.534,412.538,2001.078,409.755z"/>
	<path fill="#2B5DBC" d="M1790.26,414.961c30.048-1.32,60.103-2.654,90.151-3.709c-11.713,7.589-23.793,14.605-35.636,21.99
		c-16.865,10.216-33.553,20.724-50.506,30.776C1792.921,447.664,1791.491,431.323,1790.26,414.961z"/>
	<path fill="#2B5DBC" d="M855.052,926.511c184.718-171.562,369.45-343.104,554.161-514.68c4.955,2.416,9.583,5.445,14.401,8.119
		c6.928,4.015,13.898,7.97,20.799,12.04c-3.485,3.498-7.48,6.418-11.189,9.664c-191.959,161.483-383.946,322.938-575.912,484.421
		c-4.437,3.573-8.487,7.663-13.19,10.889C847.348,933.078,851.404,929.988,855.052,926.511z"/>
	<path fill="#8186B0" d="M2005.393,412.035c2.865,4.267,5.043,8.936,7.555,13.421c39.399,71.557,78.75,143.141,118.136,214.711
		c1.749,3.321,3.777,6.493,5.336,9.916c-4.431,7.167-8.432,14.619-13.203,21.561c-35.69-78.404-71.223-156.875-106.852-235.313
		C2012.818,428.185,2008.775,420.25,2005.393,412.035z"/>
	<path fill="#2B5DBC" d="M1507.306,441.967c59.858-9.807,119.756-19.438,179.641-29.095c-11.761,8.956-23.936,17.382-35.84,26.148
		c-16.464,11.883-32.893,23.814-49.343,35.71c-14.517,10.413-28.857,21.085-43.49,31.341
		C1541.315,484.681,1524.143,463.446,1507.306,441.967z"/>
	<path fill="#2B5DBC" d="M1819.729,451.761c21.561-13.04,43.054-26.203,64.656-39.175c-1.211,9.508-2.416,19.029-3.825,28.51
		c-25.883,7.173-51.8,14.265-77.743,21.207C1808.179,458.39,1814.155,455.381,1819.729,451.761z"/>
	<path fill="#2B5DBC" d="M1693.609,413.103c10.828,7.643,21.221,15.898,31.926,23.725c-11.774,19.349-24.038,38.419-35.969,57.68
		c-4.601,7.051-8.718,14.415-13.557,21.296C1681.788,481.557,1687.709,447.33,1693.609,413.103z"/>
	<path fill="#E9C539" d="M1468.533,425.211c9.957-3.369,19.88-6.847,29.857-10.175c1.429,8.038,2.607,16.143,3.519,24.256
		c-16.463-2.722-32.961-5.356-49.37-8.371C1457.704,428.614,1463.231,427.205,1468.533,425.211z"/>
	<path fill="#295CBB" d="M1549.087,425.231c34.104-3.131,68.202-6.336,102.299-9.508c-10.352,2.198-20.887,3.376-31.3,5.227
		c-26.128,4.22-52.255,8.46-78.39,12.673c-8.065,1.191-16.069,2.831-24.161,3.764c5.955-3.103,12.421-5.166,18.58-7.881
		C1540.396,427.981,1544.418,425.361,1549.087,425.231z"/>
	<path fill="#2B5DBC" d="M1678.276,432.153c4.022-5.206,7.643-10.74,11.938-15.728c-3.478,21.302-7.282,42.557-10.869,63.839
		c-2.477,13.836-4.58,27.754-7.262,41.55c-25.495,6.956-50.806,14.51-76.294,21.479
		C1623.141,506.146,1650.801,469.218,1678.276,432.153z"/>
	<path fill="#2B5DBC" d="M1769.958,433.31c5.955-5.499,11.665-11.264,17.736-16.64c1.205,16.327,2.804,32.621,3.893,48.955
		c-30.075,14.265-60.211,28.401-90.314,42.618c-6.758,3.069-13.367,6.466-20.186,9.392c4.547-4.859,9.624-9.202,14.388-13.843
		C1720.295,480.291,1745.143,456.817,1769.958,433.31z"/>
	<path fill="#8186B0" d="M2097.939,416.547c2.811,4.934,4.717,10.325,7.174,15.443c10.923,24.256,21.813,48.526,32.736,72.782
		c1.096,2.675,2.893,5.268,2.668,8.29c-0.898,34.159-1.933,68.31-2.886,102.469c-0.19,6.636-0.197,13.285-0.626,19.914
		c-1.736-6.35-2.341-12.938-3.662-19.376c-11.434-64.118-22.847-128.243-34.261-192.361
		C2098.633,421.332,2098.116,418.963,2097.939,416.547z"/>
	<path fill="#2B5DBC" d="M1730.075,437.012c17.586-6.459,35.064-13.237,52.691-19.567c-23.099,22.071-46.416,43.925-69.583,65.935
		c-10.93,10.216-21.643,20.669-32.668,30.769c15.041-24.413,30.449-48.614,45.572-72.979
		C1727.122,439.544,1728,437.509,1730.075,437.012z"/>
	<path fill="#2B5DBC" d="M1667.209,430.622c4.097-2.797,7.875-6.071,12.155-8.596c-4.376,5.009-9.331,9.494-13.877,14.347
		c-25.481,26.026-51.003,52.01-76.464,78.05c-15.027,15.143-29.762,30.592-44.891,45.633c4.853-16.484,9.732-32.954,14.565-49.445
		c0.429-2.45,2.933-3.444,4.676-4.839C1598.007,480.754,1632.595,455.667,1667.209,430.622z"/>
	<path fill="#8186B0" d="M1932.734,430.765c3.444-0.83,6.847-1.892,10.372-2.423c32.049,79.629,64.179,159.223,96.249,238.845
		c3.621,9.202,7.609,18.274,10.95,27.577c-3.546-4.397-6.261-9.406-9.508-14.013c-49.404-74.919-98.807-149.831-148.232-224.73
		c-2.756-4.39-5.928-8.521-8.391-13.081C1900.358,438.898,1916.542,434.807,1932.734,430.765z"/>
	<path fill="#2B5DBC" d="M1346.415,518.145c33.573-28.278,67.221-56.468,100.761-84.794c17.9,2.613,35.785,5.411,53.61,8.535
		c-81.759,62.301-163.667,124.411-245.494,186.637C1121.896,729.93,988.44,831.249,855.086,932.704
		c-3.417,2.539-6.615,5.383-10.27,7.582c3.927-4.111,8.643-7.371,12.918-11.107C1020.632,792.177,1183.517,655.154,1346.415,518.145
		z"/>
	<path fill="#2B5DBC" d="M1474.726,468.816c9.882-8.65,19.635-17.443,29.599-25.998c13.414,16.729,26.761,33.512,40.155,50.254
		c3.852,4.914,7.902,9.671,11.618,14.687c-230.671,166.635-461.39,333.222-692.089,499.816c3.274-3.539,7.187-6.398,10.74-9.644
		C1074.732,821.544,1274.742,645.197,1474.726,468.816z"/>
	<path fill="#2A5DBC" d="M1659.546,450.842c2.328-2.607,4.322-5.547,7.057-7.765c-1.395,2.743-3.525,5.002-5.322,7.48
		c-22.589,30.259-44.987,60.661-67.63,90.879c0.259-4.955,0.055-9.957,0.64-14.884c1.327-2.232,3.294-4.002,4.941-5.996
		C1619.33,497.312,1639.462,474.098,1659.546,450.842z"/>
	<path fill="#8186B0" d="M1796.324,467.754c28.326-7.942,56.747-15.565,85.135-23.29c4.716,12.312,8.745,24.889,13.224,37.296
		c10.073,28.741,20.091,57.496,30.184,86.23c6.329,18.383,12.965,36.663,19.165,55.087c-17.212-17.757-34.097-35.833-51.18-53.712
		C1860.687,535.48,1828.481,501.634,1796.324,467.754z"/>
	<path fill="#8186B0" d="M1952.954,445.329c3.036,4.349,5.288,9.174,8.099,13.673c44.259,76.498,88.605,152.948,132.851,229.453
		c-11.774,6.214-23.793,11.985-35.69,17.961c-5.281-12.182-9.978-24.624-15.021-36.908
		c-26.931-66.759-53.814-133.538-80.752-200.297C1959.351,461.221,1955.819,453.394,1952.954,445.329z"/>
	<path fill="#385A9B" d="M1656.96,448.963C1657.334,449.358,1657.334,449.358,1656.96,448.963z"/>
	<path fill="#2A5DBD" d="M1649.834,456.137c2.219-2.171,4.097-4.751,6.751-6.425c-1.259,2.539-3.444,4.424-5.247,6.561
		c-18.11,20.894-36.187,41.822-54.29,62.716c-2.246,2.525-4.26,5.315-7.023,7.31c-8.283,6.241-16.525,12.53-24.794,18.777
		c-3.137,2.294-6.044,4.893-9.324,6.983C1587.138,520.017,1618.561,488.138,1649.834,456.137z"/>
	<path fill="#2B5DBC" d="M1462.911,474.064c3.192-2.341,6.098-5.098,9.569-7.058c-3.355,3.798-7.568,6.697-11.243,10.161
		c-204.326,180.199-408.651,360.384-612.984,540.576c-2.273,1.946-4.308,4.295-7.16,5.411c-9.576-10.692-19.376-21.18-29.041-31.79
		c-4.016-4.519-8.33-8.779-12.142-13.469C1020.938,809.981,1241.911,642.012,1462.911,474.064z"/>
	<path fill="#3D3D55" d="M1676.234,522.977c38.929-18.144,77.941-36.126,116.87-54.277c26.563,47.335,52.902,94.806,79.384,142.188
		c13.265,23.916,26.754,47.709,39.889,71.7c-21.561-14.435-42.809-29.354-64.247-43.966
		c-47.859-32.906-95.772-65.745-143.611-98.685C1695.182,534.139,1685.606,528.721,1676.234,522.977z"/>
	<path fill="#8186B0" d="M1893.511,469.524c1.701,2.246,2.661,4.927,3.906,7.446c25.141,52.242,50.255,104.49,75.402,156.732
		c5.166,11.005,10.747,21.82,15.667,32.934c-3.879-3.233-7.269-6.99-10.937-10.433c-7.97-7.691-15.851-15.456-23.821-23.147
		c-1.967-1.974-4.417-3.709-5.254-6.493c-4.54-11.121-8.031-22.643-12.169-33.92c-12.25-35.159-24.61-70.277-36.867-105.43
		C1897.52,481.291,1894.968,475.568,1893.511,469.524z"/>
	<path fill="#3A3A3C" d="M2139.469,498.054c-0.061-8.33-1.055-16.783,0.592-25.012c0.402,10.318,0.252,20.663,0.436,30.987
		c-1.062-2.069-1.912-4.24-2.892-6.336C2138.189,497.87,2138.815,497.952,2139.469,498.054z"/>
	<path fill="#3D3D55" d="M2143.464,510.924c11.338-12.373,22.405-25.005,33.839-37.283c-3.165,40.869-6.336,81.745-9.637,122.608
		c-2.076-5.533-3.267-11.359-4.996-17.008C2156.279,556.469,2149.8,533.717,2143.464,510.924z"/>
	<path fill="#8186B0" d="M1899.691,475.037c2.144,2.437,3.491,5.417,5.159,8.181c28.898,48.703,57.721,97.446,86.625,146.142
		c9.576,16.348,19.444,32.525,28.87,48.955c-7.527-1.484-14.946-3.444-22.446-5.016c-1.49-0.429-3.45-0.436-4.049-2.13
		c-31.157-64.581-62.151-129.25-93.308-193.824C1900.202,476.582,1899.922,475.813,1899.691,475.037z"/>
	<path fill="#3D3D55" d="M1800.366,475.996c48.641,50.949,97.072,102.115,145.605,153.173c-9.821,18.369-19.574,36.786-29.34,55.182
		c-27.339-48.682-54.42-97.521-81.664-146.251C1823.452,517.383,1811.827,496.727,1800.366,475.996z"/>
	<path fill="#3D3D55" d="M2179.8,477.133c7.861,24.249,15.204,48.689,22.875,73.007c-10.883,16.368-21.507,32.913-32.525,49.179
		C2173.43,558.592,2176.499,517.852,2179.8,477.133z"/>
	<path fill="#8186B0" d="M1917.495,499.061c3.553,4.097,6.023,8.991,9.127,13.421c30.912,46.886,61.825,93.778,92.771,140.636
		c11.597,17.757,23.439,35.363,34.969,53.161c-4.363-0.613-8.664-1.559-12.999-2.3c-1.32-0.32-3.015-0.347-3.655-1.749
		c-3.587-5.969-7.078-11.999-10.638-17.974c-2.471-5.07-5.907-9.569-8.589-14.517c-31.702-53.392-63.274-106.859-95.023-160.224
		C1921.436,506.044,1919.108,502.743,1917.495,499.061z"/>
	<path fill="#2B5DBC" d="M1427.452,603.96c42.727-30.817,85.386-61.743,128.161-92.499c-3.934,13.755-8.072,27.448-12.087,41.176
		c-1.239,3.784-2.001,7.731-3.519,11.413c-1.933,1.79-4.335,2.974-6.472,4.485c-170.766,112.338-341.505,224.716-512.264,337.061
		c-37.875,24.971-75.845,49.805-113.658,74.865c-2.579,1.647-4.995,3.607-7.833,4.812c4.648-4.192,10.107-7.378,15.089-11.155
		C1085.737,850.741,1256.591,727.351,1427.452,603.96z"/>
	<path fill="#8186B0" d="M2143.11,520.092c7.929,27.101,15.293,54.392,23.113,81.534c0.286,1.273,0.905,2.77-0.061,3.927
		c-7.418,11.182-14.912,22.31-22.378,33.464c-1.368,2.055-2.695,4.138-4.274,6.044C2140.7,603.402,2141.755,561.737,2143.11,520.092
		z"/>
	<path fill="#E9C538" d="M1671.497,524.726c2.076-0.851,3.852,0.932,5.594,1.817c6.118,3.886,12.577,7.241,18.594,11.291
		c-11.727-1.103-23.365-3.008-35.064-4.342c-4.301-0.633-8.644-0.973-12.897-1.797c2.743-1.49,5.887-1.885,8.841-2.797
		C1661.554,527.544,1666.508,526.088,1671.497,524.726z"/>
	<path fill="#E9C539" d="M1543.942,564.609c15.409-11.577,30.633-23.412,46.144-34.853c-6.289,20.132-12.924,40.161-19.342,60.252
		c-4.608,13.966-8.82,28.067-13.68,41.938c-4.723-20.942-8.963-41.985-13.564-62.954
		C1543.343,567.549,1542.26,565.541,1543.942,564.609z"/>
	<path fill="#E9C539" d="M1624.285,538.107c4.451-1.239,8.861-2.641,13.374-3.668c-4.39,8.392-9.161,16.586-13.68,24.909
		c-2.981-0.966-5.683-2.552-8.494-3.859c-6.391-3.138-12.938-5.962-19.172-9.378
		C1605.555,543.184,1614.974,540.836,1624.285,538.107z"/>
	<path fill="#E9C438" d="M1635.099,544.81c2.015-3.41,3.6-7.078,5.914-10.311c2.3,2.198,4.567,4.431,6.677,6.826
		c-6.085,4.982-12.264,9.875-18.628,14.49C1630.955,552.079,1633.119,548.492,1635.099,544.81z"/>
	<path fill="#E9C539" d="M1646.37,534.493c8.215,0.742,16.375,2.049,24.576,3.035c10.182,1.348,20.397,2.491,30.565,3.995
		c2.396,6.785,4.451,13.687,6.724,20.52c1.688,5.622,3.798,11.114,5.281,16.804c-18.682-11.951-37.065-24.379-55.638-36.5
		C1654.054,539.706,1649.95,537.467,1646.37,534.493z"/>
	<path fill="#E5C12C" d="M1587.839,545.879c1.041-3.144,1.804-6.391,3.253-9.379c-0.034,4.172,0.184,8.548-1.559,12.448
		c-5.186,12.815-9.753,25.869-15.007,38.657c2.021-7.881,4.975-15.477,7.343-23.249
		C1583.831,558.184,1585.832,552.031,1587.839,545.879z"/>
	<path fill="#4A4A6E" d="M1626.898,561.124c7.582-6.016,15.197-12.006,22.915-17.852c11.958,11.965,23.909,23.936,35.88,35.894
		c1.286,1.348,2.777,2.545,3.791,4.145c2.021,4.213,5.962,6.888,9.004,10.29c1.756,1.98,3.852,3.621,6.187,4.893
		c1.96,1.334,3.464,3.212,5.179,4.839c3.124,3.226,6.425,6.289,9.515,9.555c-26.951-14.98-53.712-30.32-80.731-45.184
		C1634.732,565.494,1630.778,563.37,1626.898,561.124z"/>
	<path fill="#3D3D55" d="M1653.516,542.898c3.281,1.647,6.153,3.981,9.283,5.914c-0.252,0.286-0.755,0.864-1,1.15
		c9.964,10.44,20.384,20.465,30.531,30.735c9.692,9.63,19.254,19.404,29.082,28.891c0.483-0.197,0.987-0.388,1.511-0.572
		c0.497,1.606,1.007,3.206,1.443,4.846c-10.556-10.032-20.649-20.547-31.014-30.769c-11.801-11.801-23.589-23.603-35.397-35.397
		C1656.409,546.158,1654.728,544.722,1653.516,542.898z"/>
	<path fill="#3A3A3C" d="M1709.603,546.764c23.344,15.728,46.436,31.858,69.685,47.736c23.256,15.973,46.505,31.954,69.767,47.913
		c21.084,14.585,42.346,28.932,63.342,43.639c-29.796,1.225-59.592,2.341-89.381,3.566c-35.234-44.19-70.311-88.51-105.484-132.748
		C1714.953,553.447,1712.053,550.269,1709.603,546.764z"/>
	<path fill="#E9C539" d="M1591.841,554.693c0.361-2.294,0.769-4.587,1.531-6.779c9.419,4.431,18.805,8.95,28.163,13.51
		c-2.62,2.824-6.064,4.676-9.031,7.099c-9.004,6.609-17.763,13.564-26.944,19.921
		C1587.574,577.179,1589.752,565.943,1591.841,554.693z"/>
	<path fill="#4A4A6E" d="M1662.799,548.812c17.042,11.128,33.988,22.405,51.017,33.56c1.477,0.742,1.742,2.457,2.226,3.893
		c2.212,7.609,4.655,15.15,6.881,22.752c-0.524,0.184-1.028,0.374-1.511,0.572c-9.828-9.487-19.39-19.261-29.082-28.891
		c-10.147-10.27-20.567-20.295-30.531-30.735C1662.044,549.677,1662.547,549.098,1662.799,548.812z"/>
	<path fill="#3A3A3C" d="M1707.82,551.324c7.929,11.971,15.347,24.31,23.086,36.425c20.22,32.137,40.454,64.261,60.654,96.412
		c-7.371,10.61-14.585,21.33-21.901,31.981c-1.382,1.912-2.484,4.056-4.158,5.744
		C1746.355,665.002,1726.856,608.228,1707.82,551.324z"/>
	<path fill="#3D3D55" d="M2172.674,601.238c10.256-15.694,20.302-31.532,30.715-47.124c3.6,24.998,7.575,49.948,11.128,74.946
		c-29.116,14.027-58.108,28.306-87.238,42.292C2142.266,647.892,2157.565,624.623,2172.674,601.238z"/>
	<path fill="#E8C436" d="M1578.332,585.394c3.321-8.058,6.03-16.361,9.569-24.324c-1.552,9.161-3.471,18.267-5.043,27.428
		c-0.62,4.893-4.063,8.65-6.268,12.877c-3.927,6.329-7.235,13.067-11.583,19.111C1569.171,608.697,1573.969,597.12,1578.332,585.394
		z"/>
	<path fill="#4A4A6E" d="M1610.959,573.565c4.424-3.723,9.025-7.269,13.721-10.644c8.963,5.002,17.933,9.998,26.917,14.966
		c2.913,1.701,6.009,3.117,8.786,5.064C1643.872,580.044,1627.436,576.669,1610.959,573.565z"/>
	<path fill="#3A3A3C" d="M1718.526,562.792c1.953,1.661,3.355,3.845,4.941,5.846c31.695,40.052,63.608,79.935,95.221,120.049
		c-8.174-1.79-16.341-3.675-24.44-5.731c-3.205-4.145-5.662-8.861-8.568-13.224c-19.621-31.178-39.25-62.362-58.857-93.547
		C1724.161,571.653,1720.935,567.454,1718.526,562.792z"/>
	<path fill="#E9C539" d="M1519.549,583.767c6.547-4.955,12.809-10.284,19.431-15.15c-24.773,91.165-49.295,182.397-73.959,273.589
		c0.613-6.561,2.443-12.918,3.641-19.376c15.803-78.363,31.6-156.732,47.389-235.102
		C1516.378,585.843,1518.209,584.897,1519.549,583.767z"/>
	<path fill="#E9C539" d="M1539.538,576.601c0.49-1.817,0.708-3.771,1.776-5.377c3.661,17.961,7.65,35.853,11.42,53.787
		c0.742,4.111,2.062,8.14,2.436,12.312c-0.701,3.403-2.545,6.459-3.723,9.712c-28.115,68.29-56.189,136.594-84.311,204.884
		c-1.633,3.804-2.892,7.779-4.907,11.413c2.634-11.168,5.975-22.174,8.875-33.281
		C1493.885,745.563,1516.745,661.096,1539.538,576.601z"/>
	<path fill="#8086B0" d="M1600.675,581.161c2.416-1.722,4.628-3.777,7.248-5.2c2.777-0.02,5.472,0.885,8.215,1.327
		c10.849,2.096,21.697,4.172,32.552,6.248c2.79,0.517,5.635,0.898,8.344,1.817c-5.499,0.51-11.032,0.939-16.545,0.878
		c-3.158-0.476-6.193,0.79-9.31,0.919c-14.272,0.973-28.496,2.471-42.768,3.308C1592.304,587.109,1596.612,584.291,1600.675,581.161
		z"/>
	<path fill="#373758" d="M1689.485,583.311c2.818,2.232,5.166,4.975,7.752,7.466c2.484,2.559,5.193,4.927,7.439,7.718
		c-2.334-1.273-4.431-2.913-6.187-4.893C1695.447,590.199,1691.506,587.524,1689.485,583.311z"/>
	<path fill="#295DBD" d="M1499.751,593.935c4.172-2.545,7.949-5.758,12.366-7.895c-3.199,3.376-7.269,5.771-10.787,8.786
		c-11.577,9.059-22.997,18.328-34.683,27.237c-77.846,50.112-155.766,100.114-233.632,150.205
		c-6.153,3.784-12.047,8.031-18.335,11.57c-0.497-0.231-1.484-0.681-1.98-0.905c21.275-14.286,42.802-28.21,64.179-42.346
		C1351.166,691.701,1425.452,642.808,1499.751,593.935z"/>
	<path fill="#8085AF" d="M1644.403,588.776c7.323-0.327,14.653-0.762,21.976-1.205c3.369-0.47,5.982,2.096,8.807,3.485
		c9.276,5.247,18.566,10.481,27.856,15.728c3.042,1.804,6.35,3.219,9.14,5.445c-8.875-2.498-17.43-6.016-26.216-8.807
		c-11.686-3.954-23.331-8.031-35.01-11.999C1648.731,590.628,1646.336,590.178,1644.403,588.776z"/>
	<path fill="#E9C539" d="M1499.009,600.006c4.621-3.512,8.984-7.384,13.789-10.658c-2.028,11.985-4.73,23.855-7.03,35.792
		c-16.266,80.752-32.58,161.496-48.805,242.255c-0.177-6.146,0.674-12.244,0.817-18.376c3.839-74.831,7.772-149.661,11.59-224.485
		c-0.075-1.232,1.096-1.885,1.892-2.613C1480.497,614.605,1489.767,607.316,1499.009,600.006z"/>
	<path fill="#4A4A6E" d="M1584.409,593.554c15.572-1.211,31.137-2.607,46.715-3.77c-12.74,8.215-25.747,16.021-38.589,24.079
		c-10.563,6.5-21.037,13.156-31.64,19.58C1568.674,620.117,1576.453,606.778,1584.409,593.554z"/>
	<path fill="#3D3D55" d="M1637.76,589.716c17.069,6.098,34.159,12.135,51.194,18.308
		c-47.205,102.347-94.404,204.686-141.617,307.026c-1.701,3.417-2.926,7.071-4.9,10.352c0.443-3.389,1.797-6.561,2.627-9.855
		C1575.97,806.938,1606.814,698.31,1637.76,589.716z"/>
	<path fill="#3D3D55" d="M1563.359,635.09c23.746-14.68,47.41-29.51,71.196-44.122c-28.401,100.06-56.904,200.092-85.339,300.139
		c-3.784,12.972-7.262,26.039-11.162,38.964c6.534-96.895,13.36-193.79,19.975-290.692
		C1558.615,637.05,1561.644,636.526,1563.359,635.09z"/>
	<path fill="#8186B0" d="M1693.5,609.548c10.876,3.376,21.69,6.956,32.546,10.406c2.219,7.316,3.573,14.871,5.452,22.276
		c4.329,18.376,8.684,36.745,12.986,55.121c2.253,9.977,4.914,19.88,6.901,29.912c-5.948-11.223-11.243-22.793-16.933-34.159
		C1720.799,665.254,1707.072,637.432,1693.5,609.548z"/>
	<path fill="#3D3D55" d="M1539.906,937.706c50.241-109.105,100.584-218.176,150.92-327.24
		c20.608,41.713,40.985,83.549,61.539,125.289c0.381,1.409,2.273,3.063,1.314,4.465
		C1682.421,806.047,1611.231,871.962,1539.906,937.706z"/>
	<path fill="#2B5DBC" d="M1439.689,644.789c7.595-5.417,15.109-10.957,22.766-16.28c-11.148,16.981-22.806,33.648-34.077,50.554
		c-1.974,3.314-5.697,4.812-8.677,7.01c-130.577,86.979-261.161,173.951-391.746,260.916
		c-35.915,23.97-71.924,47.791-107.764,71.877c-1.953,1.273-3.866,2.641-5.962,3.689c5.737-4.819,12.108-8.827,18.144-13.251
		C1101.486,887.806,1270.584,766.294,1439.689,644.789z"/>
	<path fill="#E9C539" d="M1460.529,636.37c1.919-2.77,3.6-5.73,5.846-8.262c-0.313,13.054-1.348,26.087-1.885,39.141
		c-2.722,51.908-5.356,103.817-8.072,155.725c-0.749,14.782-1.62,29.565-2.212,44.354c-0.089,0.96-0.238,1.926-0.395,2.893
		c-8.283-61.729-16.137-123.52-24.358-185.256c-0.456-1.599,0.116-3.138,1.075-4.41
		C1440.595,665.873,1450.497,651.077,1460.529,636.37z"/>
	<path fill="#3D3D55" d="M1995.62,772.65c72.993-46.777,145.965-93.587,218.958-140.357c-0.109,5.785-0.218,11.584-0.646,17.362
		c-0.245-1.252-0.531-2.477-0.79-3.702c-0.558,4.921-0.715,9.937,0.422,14.796c0.109,7.602-0.49,15.225-0.579,22.84
		c-0.504,9.807-0.401,19.642-1.116,29.435c-0.293-0.796-0.572-1.572-0.844-2.341c-0.544,4.444-0.585,8.977,0.497,13.346
		c-0.014,9.208-0.49,18.451-0.783,27.666c-62.784,10.508-125.575,20.942-188.359,31.416c-19.22,3.151-38.405,6.506-57.639,9.542
		C1974.841,785.711,1985.363,779.375,1995.62,772.65z"/>
	<path fill="#3D3D55" d="M1949.422,632.735c10.175,9.494,20.009,19.369,30.021,29.047c3.627,3.621,7.466,7.037,10.971,10.794
		c-12.04,1.252-24.052,2.736-36.105,3.791C1952.784,661.81,1950.953,647.286,1949.422,632.735z"/>
	<path fill="#3D3D55" d="M1939.716,646.626c2.409-4.281,4.41-8.8,7.071-12.931c1.64,14.401,3.26,28.796,4.927,43.19
		c-10.774,2.858-21.602,5.533-32.403,8.283C1925.996,672.257,1932.931,659.483,1939.716,646.626z"/>
	<path fill="#3D3D55" d="M2178.385,649.825c4.648-2.096,8.997-4.866,13.782-6.629c-1.878,1.865-4.294,3.029-6.479,4.458
		c-75.402,48.322-150.777,96.677-226.186,144.992c0.041-2.178-0.259-4.437,0.429-6.534c2.021-4.757,1.504-10.113,0.429-15.034
		c-0.293-4.499,0.259-9.018,0.347-13.516c26.277-13.006,52.562-25.998,78.853-38.984c5.669-2.729,11.236-5.683,16.981-8.256
		c2.403-0.449,4.151-2.191,6.289-3.24C2101.322,687.938,2139.87,668.915,2178.385,649.825z"/>
	<path fill="#8085B0" d="M1734.662,644.02c2.668,5.526,4.131,11.536,6.384,17.232c6.819,19.077,13.605,38.167,20.417,57.244
		c0.715,2.151,1.804,4.226,2.055,6.506c-2.13,3.845-4.41,7.663-7.085,11.168C1749.125,705.47,1741.945,674.728,1734.662,644.02z"/>
	<path fill="#3D3D55" d="M1551.551,653.861c1.096-2.634,1.994-5.363,3.382-7.868c-6.874,98.318-13.584,196.649-20.377,294.98
		c-26.175-18.369-52.358-36.718-78.472-55.175C1487.984,808.524,1519.699,731.162,1551.551,653.861z"/>
	<path fill="#24233B" d="M2213.142,645.952c0.259,1.225,0.545,2.45,0.79,3.702c0.007,3.696-0.075,7.405-0.368,11.094
		C2212.427,655.889,2212.584,650.873,2213.142,645.952z"/>
	<path fill="#2B5DBC" d="M1408.906,662.321c3.321-2.035,6.384-4.526,9.957-6.125c-3.587,3.457-8.01,5.887-11.965,8.895
		c-173.727,124.826-347.46,249.646-521.18,374.493c-13.067,9.297-25.985,18.811-39.127,27.999
		c-1.225-13.795-2.518-27.584-3.648-41.386c90.954-58.626,182.057-117.04,273.065-175.585
		C1213.639,787.841,1311.31,725.132,1408.906,662.321z"/>
	<path fill="#4A4A6E" d="M1954.131,679.138c12.407-1.252,24.801-2.661,37.214-3.934c-8.541,21.336-17.294,42.591-25.89,63.907
		c-1.667,3.58-2.661,7.48-4.682,10.883C1958.596,726.371,1956.132,702.775,1954.131,679.138z"/>
	<path fill="#4A4A6E" d="M1980.3,709.669c4.716-11.488,9.263-23.045,14.074-34.492c8.8,2.069,17.648,3.954,26.427,6.146
		c-16.892,20.125-33.709,40.311-50.574,60.456c-1.77,2.062-3.362,4.281-5.336,6.146
		C1969.819,735.096,1975.202,722.437,1980.3,709.669z"/>
	<path fill="#4A4A6E" d="M1926.173,686.161c8.432-2.042,16.776-4.444,25.25-6.323c2.158,23.535,4.478,47.049,6.69,70.57
		c-13.265-20.363-25.883-41.169-39.038-61.607C1921.048,687.08,1923.736,686.835,1926.173,686.161z"/>
	<path fill="#3D3D55" d="M1991.958,719.987c10.345-12.428,20.758-24.794,31.083-37.242c4.308,7.085,8.412,14.299,12.7,21.404
		c-11.863,8.038-23.875,15.858-35.779,23.827c-10.814,7.085-21.466,14.435-32.369,21.37
		C1975.481,739.383,1983.866,729.794,1991.958,719.987z"/>
	<path fill="#E6E18D" d="M1794.881,686.216c8.528,1.565,16.933,3.75,25.393,5.676c-0.191,3.274-1.259,6.391-2.042,9.549
		c-1.919,7.405-3.682,14.844-5.649,22.235c-0.769,2.784-1.198,5.683-2.409,8.33c-3.185-8.453-5.839-17.103-8.766-25.651
		C1799.223,699.644,1796.548,693.076,1794.881,686.216z"/>
	<path fill="#E6E18D" d="M1787.034,695.383c1.627-2.471,3.233-4.968,5.138-7.241c2.477,5.819,4.138,11.944,6.268,17.899
		c3.335,9.984,6.84,19.928,10.005,29.966c-2.185,0.483-4.437,0.531-6.649,0.585c-14.326,0.585-28.646,1.327-42.966,1.892
		c1.089-2.743,2.927-5.064,4.547-7.493C1771.108,719.02,1778.948,707.124,1787.034,695.383z"/>
	<path fill="#3A3A3C" d="M1850.001,691.382c19.723-1.103,39.481-1.688,59.224-2.423c-4.927,2.75-10.229,4.764-15.306,7.214
		c-17.083,7.861-34.199,15.647-51.268,23.535c-5.812-8.82-11.57-17.682-17.341-26.536c3.063,0.014,6.139,0,9.215-0.265
		c-0.422-0.218-1.252-0.64-1.674-0.851c2.232-0.265,4.499-0.49,6.765-0.286c4.397,0.932,8.929,1,13.387,0.442
		C1851.989,691.899,1850.995,691.606,1850.001,691.382z"/>
	<path fill="#3D3D55" d="M1886.433,702.952c9.195-4.288,18.301-8.786,27.557-12.952c-24.814,59.286-49.533,118.619-74.422,177.871
		c-3.362-13.972-5.982-28.129-9.065-42.169c-6.118-29.156-12.387-58.285-18.389-87.462
		C1836.825,726.343,1861.673,714.753,1886.433,702.952z"/>
	<path fill="#3D3D55" d="M1916.842,690.218c13.646,22.065,27.108,44.245,40.794,66.296
		c-37.085,35.942-74.381,71.673-111.507,107.573c-1,0.987-2.028,1.953-3.124,2.824
		C1867.513,807.973,1892.225,749.116,1916.842,690.218z"/>
	<path fill="#E9C539" d="M1426.881,693.138c0.123-0.592,0.408-1.096,0.858-1.511c7.35,57.482,14.912,114.951,22.541,172.399
		c-1.824-4.349-2.62-9.025-3.873-13.551c-8.705-33.036-17.443-66.064-26.155-99.093c-0.789-3.927-2.607-7.691-2.661-11.72
		C1420.599,724.138,1423.961,708.675,1426.881,693.138z"/>
	<path fill="#202022" d="M1839.616,691.77c3.444-0.272,6.922-0.463,10.386-0.388c0.994,0.225,1.987,0.517,3.001,0.83
		C1848.545,692.77,1844.012,692.702,1839.616,691.77z"/>
	<path fill="#1C1C1F" d="M1825.283,692.192c2.511-0.007,5.036-0.211,7.568-0.136c0.422,0.211,1.252,0.633,1.674,0.851
		c-3.076,0.265-6.152,0.279-9.215,0.265L1825.283,692.192z"/>
	<path fill="#2B5DBC" d="M1414.515,711.507c3.28-6.18,6.05-12.638,9.637-18.641c-2.191,12.251-4.893,24.413-7.289,36.629
		c-1.177,4.798-1.279,10.018-4.09,14.258c-62.607,115.067-125.187,230.14-187.726,345.234c-4.397,8.045-8.541,16.232-13.244,24.106
		c4.444-9.869,9.685-19.363,14.517-29.047C1289.062,959.873,1351.785,835.686,1414.515,711.507z"/>
	<path fill="#2B5DBC" d="M1405.449,707.192c4.226-4.192,8.147-8.711,12.564-12.706c-96.317,145.06-192.824,290.025-289.174,435.078
		c-0.551,1.143-1.729,1.518-2.852,1.858c-27.925-16.593-55.89-33.117-83.807-49.724
		C1163.208,956.804,1284.386,832.052,1405.449,707.192z"/>
	<path fill="#E6E18D" d="M1822.676,694.431c3.267,3.975,5.649,8.582,8.589,12.802c2.838,4.574,6.207,8.834,8.671,13.646
		c-4.717,2.75-9.726,4.934-14.524,7.514c-4.22,2.083-8.269,4.505-12.632,6.268c1.062-6.261,3.035-12.319,4.499-18.492
		C1819.13,708.934,1820.9,701.679,1822.676,694.431z"/>
	<path fill="#2B5DBC" d="M1397.513,704.041c2.532-1.674,4.914-3.614,7.663-4.941c-2.049,2.389-4.703,4.138-7.078,6.166
		c-166.893,138.935-333.794,277.856-500.687,416.791c-2.688,2.198-5.268,4.526-8.092,6.561
		c-13.945-19.41-28.074-38.698-41.863-58.217C1030.8,948.276,1214.15,826.151,1397.513,704.041z"/>
	<path fill="#405E92" d="M1405.156,702.856C1405.544,703.244,1405.544,703.244,1405.156,702.856z"/>
	<path fill="#2B5DBC" d="M1398.854,708.083c1.926-1.593,3.668-3.464,5.969-4.539c-1.341,2.314-3.498,3.968-5.288,5.914
		c-119.177,122.894-238.409,245.726-357.587,368.612c-1.558,1.708-3.553,2.974-5.744,3.703
		c-43.401,13.986-86.782,28.02-130.183,42.006c-3.314,1.028-6.568,2.266-9.937,3.069c4.158-4.036,8.875-7.453,13.244-11.264
		C1072.506,979.746,1235.684,843.922,1398.854,708.083z"/>
	<path fill="#2B5DBC" d="M1410.683,710.411c1.457-2.219,2.736-4.58,4.54-6.547c-1.633,4.335-4.206,8.221-6.132,12.421
		c-80.615,159.577-161.197,319.168-241.846,478.725c-5.227-7.595-9.787-15.647-14.762-23.419
		c-7.766-12.523-15.531-25.046-23.29-37.568c10.951-16.906,22.276-33.567,33.369-50.377
		C1245.266,959.233,1327.985,834.829,1410.683,710.411z"/>
	<path fill="#3D3D55" d="M2025.994,713.875c4.043-2.518,7.813-5.547,12.04-7.752c5.023,0.742,10.012,1.817,15.014,2.763
		c-19.533,9.828-39.249,19.295-58.857,28.979c-4.676,2.096-9.065,4.819-13.857,6.608c1.967-2.001,4.533-3.219,6.826-4.798
		C2000.098,731.067,2013.049,722.478,2025.994,713.875z"/>
	<path fill="#25243E" d="M2211.025,710.683c0.272,0.769,0.551,1.545,0.844,2.341c0.061,3.662-0.068,7.344-0.347,11.005
		C2210.44,719.66,2210.481,715.127,2211.025,710.683z"/>
	<path fill="#3D3D55" d="M1756.884,741.309c16.783-0.728,33.553-1.654,50.343-2.219c-26.815,30.456-53.841,60.736-80.731,91.137
		c-1.45,1.606-2.784,3.321-4.41,4.757C1733.587,803.726,1745.266,772.528,1756.884,741.309z"/>
	<path fill="#3D3D55" d="M1801.639,749.517c1.865-2.062,3.594-4.26,5.629-6.166c-13.02,42.38-26.135,84.74-39.188,127.12
		c-3.246,10.182-6.119,20.486-9.583,30.592c-12.931-19.662-25.692-39.44-38.671-59.082c7.874-9.358,16.211-18.335,24.256-27.557
		C1763.274,792.796,1782.453,771.153,1801.639,749.517z"/>
	<path fill="#3D3D55" d="M1802.646,767.539c2.6-8.072,4.812-16.28,7.643-24.276c6.493,30.082,12.734,60.225,19.125,90.334
		c2.627,12.809,5.547,25.57,7.997,38.412c-25.461,9.964-50.867,20.077-76.287,30.143
		C1774.96,857.281,1788.817,812.417,1802.646,767.539z"/>
	<path fill="#3D3D55" d="M1712.019,782.39c13.55-12.407,26.897-25.059,40.563-37.323c-10.406,28.026-20.833,56.053-31.259,84.08
		c-1.783,3.907-2.478,8.487-4.955,11.965c-49.315,27.639-98.733,55.093-148.082,82.671c-7.554,4.09-14.932,8.528-22.555,12.462
		c11.488-11.066,23.426-21.697,35.084-32.6C1624.55,863.223,1668.292,822.81,1712.019,782.39z"/>
	<path fill="#2B5DBC" d="M1407.048,759.835c2.505-4.349,4.594-8.936,7.33-13.142c-0.177,9.079-0.558,18.172-0.953,27.244
		c-0.789,2.498-2.539,4.567-3.743,6.874c-45.878,78.465-91.757,156.923-137.635,235.374c-18.233,31.225-36.561,62.396-54.678,93.69
		c-0.926,1.572-1.831,3.165-2.926,4.628c3.505-7.82,8.072-15.123,12.08-22.691C1286.721,981.162,1346.878,870.492,1407.048,759.835z
		"/>
	<path fill="#E8C436" d="M1416.992,750.858c1.13,1.579,1.259,3.587,1.776,5.418c8.364,32.11,17.015,64.145,25.345,96.255
		c-1.81-3.58-2.886-7.459-4.22-11.223c-7.255-20.424-14.476-40.862-21.786-61.26c-0.987-2.641-2.144-5.336-1.892-8.208
		C1416.529,764.844,1416.74,757.848,1416.992,750.858z"/>
	<path fill="#3D3D55" d="M1990.801,826.444c73.081-23.936,146.231-47.743,219.373-71.536c-2.756,12.625-5.608,25.229-8.528,37.813
		c-63.934,10.256-127.855,20.574-191.783,30.851C2003.487,824.416,1997.205,825.94,1990.801,826.444z"/>
	<path fill="#2B5DBC" d="M758.082,757.351c0.401-0.667,0.858-1.293,1.341-1.899c-2.049,41.625-4.342,83.249-6.397,124.881
		c-0.122,1.279-0.075,2.722-1.034,3.73c-75.375,91.593-150.757,183.187-226.125,274.787c-3.389,3.818-6.227,8.14-9.916,11.686
		c5.56-10.141,11.706-19.982,17.457-30.027C608.305,1012.795,683.177,885.063,758.082,757.351z"/>
	<path fill="#3D3D55" d="M1959.834,796.219c77.818-12.856,155.609-25.992,233.427-38.827c-5.411,2.334-11.196,3.641-16.722,5.649
		c-67.739,22.058-135.464,44.17-203.203,66.228C1968.784,818.277,1964.347,807.231,1959.834,796.219z"/>
	<path fill="#3D3D55" d="M1907.266,808.837c16.879-16.212,33.655-32.518,50.588-48.676c-0.048,3.777-0.204,7.555-0.497,11.318
		c-0.211-1.463-0.477-2.913-0.749-4.356c-0.626,4.9-0.796,9.916,0.388,14.762c0.224,4.152-0.333,8.317-0.286,12.489
		c-33.533,22.071-67.269,43.837-100.843,65.84c-1.667,1.13-3.307,2.294-5.091,3.199
		C1869.473,845.099,1888.461,827.05,1907.266,808.837z"/>
	<path fill="#25243D" d="M1956.609,767.124c0.272,1.443,0.538,2.892,0.749,4.356c0.034,3.471-0.095,6.942-0.361,10.406
		C1955.812,777.04,1955.982,772.024,1956.609,767.124z"/>
	<path fill="#3A3A3C" d="M1960.359,771.078c1.075,4.921,1.593,10.277-0.429,15.034
		C1959.746,781.103,1959.943,776.067,1960.359,771.078z"/>
	<path fill="#2B5DBC" d="M745.117,773.072c0.293-0.306,0.892-0.912,1.191-1.218c-2.069,4.458-5.002,8.439-7.323,12.761
		c-75.477,128.726-150.968,257.445-226.431,386.172c-0.34,0.49-0.681,0.994-1.021,1.497c19.907-54.27,39.726-108.574,59.585-162.864
		c1.137-2.886,1.844-5.996,3.628-8.569C631.54,924.932,688.329,848.992,745.117,773.072z"/>
	<path fill="#E9C538" d="M1415.331,780.865c1.463,2.988,2.402,6.193,3.546,9.317c9.351,26.427,18.798,52.82,28.135,79.247
		c-4.955-8.29-9.222-16.974-13.952-25.393c-6.057-11.189-12.101-22.371-18.199-33.533c-1.007-1.919-2.287-3.736-2.838-5.839
		c-0.123-1.572,0.218-3.124,0.442-4.662C1413.453,793.626,1414.201,787.215,1415.331,780.865z"/>
	<path fill="#134AB1" d="M1143.9,828.125c22.949-15.041,45.797-30.238,68.801-45.191c0.497,0.225,1.484,0.674,1.98,0.905
		c-11.284,7.629-22.909,14.762-34.315,22.214c-33.301,21.35-66.48,42.884-99.794,64.213c-0.476,0.265-0.953,0.51-1.429,0.728
		c-0.204,0.089-0.613,0.252-0.817,0.333C1100.016,856.682,1122.046,842.533,1143.9,828.125z"/>
	<path fill="#2B5DBC" d="M1401.815,803.617c3.328-6.459,6.35-13.088,9.875-19.438c-2.355,14.891-5.207,29.701-7.67,44.572
		c-0.456,3.709-2.92,6.67-4.546,9.916c-44.122,79.288-88.258,158.577-132.381,237.872c-4.798,8.596-9.589,17.205-14.279,25.862
		c-1.157,2.049-2.232,4.165-3.675,6.037c3.076-7.561,7.296-14.605,10.808-21.976C1307.24,992.18,1354.514,897.892,1401.815,803.617z
		"/>
	<path fill="#3D3D55" d="M1998.294,869.314c67.412-24.569,134.967-48.846,202.447-73.258c-4.56,14.292-8.99,28.632-13.537,42.938
		c-47.988,7.786-95.997,15.483-143.999,23.242C2028.227,864.523,2013.301,867.306,1998.294,869.314z"/>
	<path fill="#3D3D55" d="M1974.181,832.038c71.237-11.468,142.487-22.943,213.725-34.397c-4.914,2.348-10.222,3.73-15.279,5.724
		c-62.839,22.725-125.684,45.436-188.529,68.161C1980.715,858.384,1977.523,845.194,1974.181,832.038z"/>
	<path fill="#E9C539" d="M1407.062,827.261c1.436-5.982,2.341-12.08,3.968-18.008c9.903,17.736,19.376,35.731,29.163,53.535
		c2.273,4.519,5.05,8.78,7.065,13.435c-13.455-14.252-26.407-29-39.733-43.374C1405.762,831.406,1406.763,829.098,1407.062,827.261z
		"/>
	<path fill="#2B5DBC" d="M1391.797,816.616c0.476-0.81,0.994-1.606,1.545-2.368c-1.906,4.71-4.431,9.127-6.711,13.653
		c-55.788,111.221-111.569,222.443-167.349,333.658c-1.518,2.77-2.62,5.771-4.397,8.385c-2.232,1.783-4.941,2.824-7.384,4.281
		c-12.074,6.608-24.113,13.299-36.255,19.791c41.992-72.142,84.263-144.128,126.351-216.215
		C1328.992,924.067,1360.476,870.389,1391.797,816.616z"/>
	<path fill="#E9C539" d="M1406.45,835.843c7.337,7.446,14.102,15.449,21.261,23.079c6.942,7.84,14.299,15.334,21.023,23.371
		c-9.44-3.607-18.634-7.847-27.986-11.672c-4.431-1.919-8.936-3.655-13.292-5.724
		C1407.048,855.219,1406.518,845.534,1406.45,835.843z"/>
	<path fill="#2A5DBC" d="M1400.583,845.963c0.939-2.375,1.77-4.812,3.049-7.031c0.51,6.969,0.531,13.972,0.919,20.955
		c-0.061,2.382,0.613,4.934-0.463,7.18c-28.551,62.444-57.074,124.908-85.611,187.359c-3.723,7.725-6.738,15.803-10.842,23.337
		c1.667-5.758,4.376-11.148,6.506-16.736C1342.985,989.349,1371.774,917.649,1400.583,845.963z"/>
	<path fill="#3D3D55" d="M2040.729,887.146c48.315-14.871,96.575-29.912,144.917-44.674c-13.945,28.265-27.849,56.543-41.781,84.815
		c-49.002-8.616-97.923-17.736-146.905-26.475C2011.443,895.973,2026.158,891.739,2040.729,887.146z"/>
	<path fill="#3D3D55" d="M1582,919.167c45.17-25.243,90.416-50.35,135.532-75.681c13.231,19.873,26.175,39.95,39.249,59.932
		c-71.033,12.427-142.059,24.882-213.092,37.283C1556.308,933.282,1569.253,926.388,1582,919.167z"/>
	<path fill="#3D3D55" d="M2149.568,847.801c6.173-0.823,12.264-2.348,18.491-2.784c-58.694,18.138-117.381,36.336-176.115,54.331
		c-2.348-8.337-4.778-16.64-7.092-24.977C2039.756,865.517,2094.666,856.662,2149.568,847.801z"/>
	<path fill="#2B5DBC" d="M1393.158,855.505c0.272-0.354,0.81-1.068,1.082-1.422c-1.211,4.349-3.348,8.371-4.88,12.611
		c-35.962,89.518-71.952,179.022-107.907,268.546c-0.483,1.715-2.246,2.368-3.668,3.124c-19.451,9.692-38.732,19.744-58.245,29.306
		c21.949-39.842,44.224-79.513,66.289-119.3C1321.614,984.088,1357.4,919.8,1393.158,855.505z"/>
	<path fill="#E9C539" d="M1408.103,868.348c9.732,3.702,19.199,8.072,28.843,12.019c3.961,1.824,8.147,3.178,11.965,5.322
		c-12.006,2.287-24.12,4.022-36.194,5.88C1411.078,883.852,1409.349,876.14,1408.103,868.348z"/>
	<path fill="#8186B0" d="M1066.748,878.958c3.709-2.736,7.446-5.567,11.577-7.629c0.204-0.082,0.613-0.245,0.817-0.333
		C1075.358,874.133,1071.036,876.59,1066.748,878.958z"/>
	<path fill="#2B5DBC" d="M1404.135,878.107c0.578-1.838,0.619-3.927,1.885-5.472c3.328,18.546,6.792,37.065,10.209,55.59
		c0.245,1.021-0.007,2.062-0.422,3.015c-22.636,52.691-45.252,105.396-67.868,158.094c-1.382,3.144-2.498,6.418-4.131,9.453
		c4.295-16.811,9.154-33.492,13.646-50.255C1373.012,991.724,1388.584,934.916,1404.135,878.107z"/>
	<path fill="#2B5DBC" d="M1395.199,892.971c1.64-3.355,2.804-6.962,4.846-10.114c-21.425,78.159-42.754,156.351-64.275,234.476
		c-17.076,6.105-34.199,12.094-51.316,18.083C1321.328,1054.583,1358.284,973.791,1395.199,892.971z"/>
	<path fill="#2B5DBC" d="M744.668,897.164c3.049-3.668,6.003-7.425,9.127-11.026c12.019,25.331,23.575,50.894,35.445,76.301
		c2.232,5.023,4.73,9.93,6.854,15.007c-87.142,62.042-174.291,124.078-261.44,186.106c-7.167,4.975-14.102,10.304-21.404,15.075
		c7.35-9.515,15.245-18.607,22.806-27.958C605.59,1066.167,675.132,981.665,744.668,897.164z"/>
	<path fill="#E9C539" d="M1413.337,894.298c12.462-1.98,24.91-4.152,37.412-5.86c-4.669,6.438-10.011,12.353-14.925,18.607
		c-5.574,6.588-10.767,13.51-16.511,19.955c-1.266-5.417-2.069-10.917-3.117-16.375
		C1415.263,905.181,1413.984,899.791,1413.337,894.298z"/>
	<path fill="#3D3D55" d="M1456.064,889.126c14.04,9.76,27.986,19.648,41.985,29.463c11.019,7.868,22.276,15.429,33.165,23.467
		c-23.344-0.034-46.688,0.041-70.032-0.041C1459.542,924.38,1457.745,906.76,1456.064,889.126z"/>
	<path fill="#E9C539" d="M1445.059,899.961c1.94-2.368,3.709-4.914,6.023-6.962c-1.953,7.881-4.431,15.619-6.527,23.46
		c-2.954,10.29-5.696,20.656-8.786,30.905c-3.92-3.975-7.493-8.269-11.332-12.319c-1.313-1.45-2.756-2.804-3.777-4.465
		c-0.286-0.905,0.749-1.497,1.137-2.191C1429.589,918.949,1437.28,909.421,1445.059,899.961z"/>
	<path fill="#E9C539" d="M1446.448,919.691c2.532-8.392,4.458-16.987,7.371-25.257c1.354,12.291,2.382,24.624,3.655,36.929
		c0.279,3.695,0.926,7.364,0.939,11.08c-6.615,2.055-13.306,3.886-19.955,5.799C1441.003,938.693,1443.841,929.226,1446.448,919.691
		z"/>
	<path fill="#3D3D55" d="M1992.264,902.69c31.361,5.615,62.709,11.345,94.064,17.001c16.885,3.117,33.818,5.996,50.67,9.263
		c-1.838,0.892-3.866,1.198-5.819,1.647c-48.403,11.196-96.807,22.412-145.21,33.607
		C1988.052,943.695,1990.107,923.189,1992.264,902.69z"/>
	<path fill="#224B9B" d="M855.889,920.569c5.213-5.288,10.427-10.57,15.633-15.871c0.463,0.483,0.939,0.98,1.422,1.484
		c-5.962,5.656-12.074,11.155-18.022,16.831c-2.77,2.43-5.159,5.336-8.29,7.323C849.315,926.722,852.867,923.884,855.889,920.569z"
		/>
	<path fill="#3D3D55" d="M2027.219,957.409c37.943-8.752,75.858-17.627,113.821-26.291c-16.021,21.105-32.362,41.972-48.499,62.988
		c-2.287,2.865-4.383,5.873-6.799,8.63c-32.049-12.271-64.234-24.168-96.296-36.391
		C2001.936,963.004,2014.635,960.438,2027.219,957.409z"/>
	<path fill="#2B5DBC" d="M1418.707,933.085c5.765,5.438,10.74,11.699,16.212,17.457c-10.44,35.418-21.261,70.733-31.838,106.117
		c-2.743,8.603-4.934,17.389-7.956,25.896C1402.999,1032.737,1410.846,982.904,1418.707,933.085z"/>
	<path fill="#2B5DBC" d="M1413.528,943.26c0.299-0.667,0.633-1.314,1.007-1.933c-1.116,9.78-3.035,19.458-4.437,29.204
		c-6.888,43.667-13.789,87.333-20.669,131.006c-2.811,1.3-5.846,1.94-8.793,2.824c-13.768,3.947-27.509,7.976-41.277,11.931
		C1363.954,1058.565,1388.877,1000.967,1413.528,943.26z"/>
	<path fill="#2B5DBC" d="M1438.233,951.175c6.86-2.103,13.789-3.975,20.649-6.064c8.079,48.451,15.756,96.963,23.739,145.428
		c0.449,2.532,0.98,5.07,1.13,7.657c-1.354-2.722-1.96-5.717-2.858-8.582C1466.736,1043.449,1452.307,997.367,1438.233,951.175z"/>
	<path fill="#3D3D55" d="M1461.883,944.784c24.127-0.02,48.26-0.048,72.387,0.014c-2.886,41.563-5.853,83.113-8.752,124.677
		c-1.674,22.834-3.097,45.695-4.907,68.521c-2.464-6.105-3.893-12.577-5.969-18.825
		C1497.077,1061.035,1479.422,1002.927,1461.883,944.784z"/>
	<path fill="#2B5DBC" d="M1430.406,975.139c1.702-5.159,2.838-10.522,4.9-15.551c1.286,44.354,2.198,88.735,3.417,133.095
		c0.068,1.729,0.163,3.526-0.449,5.193c-15.245,1.3-30.517,2.355-45.776,3.478C1405.02,1059.252,1417.781,1017.212,1430.406,975.139
		z"/>
	<path fill="#2B5DBC" d="M1438.281,961.479c2.668,6.649,4.315,13.68,6.568,20.486c13.898,44.885,27.72,89.783,41.597,134.668
		c-15.007-6.078-30.027-12.155-44.932-18.478c-1.041-41.992-2.103-83.984-3.138-125.977
		C1438.226,968.612,1438.036,965.039,1438.281,961.479z"/>
	<path fill="#2B5DBC" d="M1465.021,964.617c17.974,59.197,35.921,118.429,53.773,177.674c-6.057-4.846-11.951-9.889-17.94-14.816
		c-3.594-3.212-7.684-5.921-10.985-9.426c-7.711-46.185-15.048-92.464-22.623-138.683
		C1466.579,974.431,1465.3,969.585,1465.021,964.617z"/>
	<path fill="#3D3D55" d="M1963.966,1032.9c7.112-21.745,14.143-43.523,21.364-65.227c28.646,10.821,57.312,21.595,85.965,32.389
		c3.362,1.32,6.833,2.402,10.1,3.988C2042.301,1013.857,2003.093,1023.222,1963.966,1032.9z"/>
	<path fill="#2B5DBC" d="M798.216,980.359c13.36,14.217,26.366,28.768,39.644,43.068c0.783,0.926,2.409,2.089,1.075,3.321
		c-47.906,66.908-95.813,133.824-143.719,200.739c-1.661,2.246-3.104,4.662-4.968,6.758c4.75-11.937,10.052-23.671,15-35.54
		C736.235,1125.922,767.215,1053.134,798.216,980.359z"/>
	<path fill="#2B5DBC" d="M772.32,997.625c7.425-5.213,14.701-10.638,22.228-15.701c-22.514,53.351-45.361,106.573-67.984,159.883
		c-14.599,34.104-28.973,68.311-43.673,102.374c-58.238-19.533-116.564-38.821-174.802-58.354
		c43.319-31.082,86.856-61.872,130.257-92.839C683.006,1061.205,727.66,1029.409,772.32,997.625z"/>
	<path fill="#2B5DBC" d="M433.565,1055.924c45.518-17.341,91.022-34.744,136.607-51.908
		c-21.629,59.613-43.544,119.13-65.268,178.715c-3.131-4.254-5.261-9.154-7.983-13.673
		C475.822,1131.34,454.574,1093.697,433.565,1055.924z"/>
	<path fill="#3D3D55" d="M1967.233,1034.914c37.902-9.453,75.885-18.607,113.828-27.918c-18.083,15.96-36.391,31.688-54.658,47.45
		c-15.361-5.125-30.776-10.093-46.164-15.116C1975.903,1037.834,1971.473,1036.63,1967.233,1034.914z"/>
	<path fill="#2B5DBC" d="M708.222,1213.916c44.068-61.491,88.034-123.05,132.15-184.5c1.429,12.38,2.219,24.828,3.471,37.235
		c0.007,1.3,0.551,2.92-0.599,3.927c-44.272,48.07-88.51,96.167-132.782,144.237c-3.702,3.77-6.908,8.044-10.883,11.543
		C702.049,1221.946,705.418,1218.108,708.222,1213.916z"/>
	<path fill="#3D3D55" d="M1962.475,1036.323c16.361,5.329,32.709,10.692,49.077,16.021c2.389,0.817,4.893,1.375,7.16,2.573
		c-24.14,1.259-48.294,2.328-72.435,3.498C1951.504,1050.935,1957.037,1043.66,1962.475,1036.323z"/>
	<path fill="#3D3D55" d="M1944.63,1061.212c25.706-1.286,51.418-2.443,77.131-3.709c-27.257,17.661-54.631,35.159-81.99,52.664
		C1941.323,1093.84,1943.01,1077.533,1944.63,1061.212z"/>
	<path fill="#224B9B" d="M432.408,1059.749c6.411,10.774,12.305,21.867,18.526,32.763c17.511,31.355,35.207,62.607,52.63,94.009
		c-48.254,146.823-96.269,293.734-144.529,440.544c0.211-5.547,1.375-10.998,1.947-16.504
		c15.83-122.308,31.702-244.603,47.539-366.911C416.509,1182.357,424.329,1121.029,432.408,1059.749z"/>
	<path fill="#224B9B" d="M414.216,1086.027c5.098-8.126,9.889-16.45,15.164-24.46c-23.997,185.821-48.152,371.614-72.197,557.427
		c-0.381,2.722-0.442,5.52-1.266,8.181c-1.933-23.888-3.376-47.832-5.132-71.734c-7.568-107.771-15.068-215.548-22.67-323.313
		c0.02-2.137-0.858-4.533,0.395-6.445C357.08,1179.138,385.651,1132.585,414.216,1086.027z"/>
	<path fill="#3D3D55" d="M1907.32,1092.717c11.495-9.8,22.827-19.798,34.39-29.531c-1.545,15.79-3.138,31.579-4.737,47.362
		C1927.051,1104.668,1917.141,1098.754,1907.32,1092.717z"/>
	<path fill="#2B5DBC" d="M793.581,1128.441c17.294-18.696,34.438-37.528,51.793-56.162c13.938,19.295,27.836,38.61,41.781,57.904
		c-46.995,26.543-94.146,52.82-141.201,79.254c-18.396,10.229-36.663,20.717-55.134,30.797
		C724.937,1202.856,759.368,1165.744,793.581,1128.441z"/>
	<path fill="#224B9B" d="M890.633,1131.605c49.193-16.001,98.44-31.831,147.68-47.702
		c-28.918,179.158-57.891,358.308-86.856,537.466c-0.674,2.777-0.422,5.846-1.735,8.439
		C930.012,1463.745,910.248,1297.682,890.633,1131.605z"/>
	<path fill="#224B9B" d="M1041.403,1084.366c28.135,16.661,56.319,33.26,84.359,50.084c0.381,2.913-0.646,5.88-0.871,8.82
		c-21.166,152.404-42.333,304.814-63.499,457.225c-1,7.466-2.185,14.918-3.008,22.412c-0.136,0.898-0.34,1.831-0.64,2.722
		c-0.694-17.307-1.048-34.642-1.627-51.956c-0.279-12.114-0.885-24.229-0.967-36.33c1.15-5.54,0.885-11.23,0.47-16.817
		c-0.32,0.973-0.613,1.981-0.837,3.022c-0.769-9.773-0.558-19.594-1.075-29.381c-0.578-21.091-1.293-42.176-1.858-63.267
		c-0.109-3.083-0.436-6.173-0.116-9.236c1.198-4.397,0.926-8.977,0.395-13.435c-0.279,0.987-0.545,2.001-0.755,3.036
		c-0.681-10.678-0.64-21.391-1.116-32.083C1047.338,1280.906,1044.364,1182.636,1041.403,1084.366z"/>
	<path fill="#3D3D55" d="M1905.415,1094.786c9.916,5.887,19.805,11.829,29.673,17.797c-19.696,8.46-39.501,16.695-59.279,24.957
		C1885.562,1123.207,1895.553,1109.037,1905.415,1094.786z"/>
	<path fill="#224B9B" d="M1037.463,1106.083c0.531-2.967,0.592-6.03,1.613-8.888c1.586,49.513,2.988,99.046,4.512,148.565
		c0.061,1.933,0.259,3.9,0.014,5.846c-1.13,5.057-0.871,10.263-0.524,15.402c0.34-0.776,0.647-1.558,0.912-2.341
		c0.742,10.018,0.579,20.084,1.089,30.116c0.755,27.441,1.661,54.876,2.443,82.317c0.504,18.737,1.307,37.487,1.559,56.216
		c-1.116,4.832-0.987,9.835-0.517,14.748c0.293-0.796,0.585-1.579,0.871-2.355c0.674,8.643,0.545,17.335,0.932,26.005
		c0.061,2.164,0.313,4.356,0.048,6.54c-1.109,5.084-0.912,10.318-0.463,15.47c0.279-1.034,0.579-2.048,0.844-3.056
		c0.667,9.317,0.544,18.682,1.014,28.02c0.054,1.695,0.211,3.423-0.021,5.145c-1.157,5.077-0.892,10.318-0.47,15.476
		c0.293-1.028,0.592-2.035,0.844-3.042c0.892,17.266,1.041,34.567,1.736,51.84c0.463,17.797,1.082,35.588,1.559,53.385
		c-34.751-0.572-69.495-1.266-104.245-1.912C980.021,1461.758,1008.694,1283.914,1037.463,1106.083z"/>
	<path fill="#3D3D55" d="M1857.114,1125.494c14.17-9.045,28.169-18.39,42.435-27.271c-7.167,10.971-14.925,21.575-22.31,32.41
		c-2.171,2.858-3.879,6.084-6.309,8.718c-15.191,2.437-30.429,4.642-45.64,6.888
		C1835.723,1139.078,1846.544,1132.47,1857.114,1125.494z"/>
	<path fill="#224B9B" d="M1392.654,1104.014c15.511-1.082,31.021-2.273,46.525-3.491c19.941,54.61,39.576,109.343,59.395,164.001
		c40.182,111.092,80.35,222.184,120.525,333.27c1.225,3.655,3.022,7.133,3.764,10.951c-2.729-4.431-4.329-9.433-6.636-14.075
		c-72.823-159.713-145.618-319.44-218.427-479.153C1396.098,1111.671,1394.199,1107.921,1392.654,1104.014z"/>
	<path fill="#224B9B" d="M1442.711,1101.714c14.932,5.935,29.776,12.128,44.633,18.26c17.198,56.366,34.084,112.841,51.166,169.255
		c25.257,83.61,50.411,167.247,75.749,250.837c1.041,3.287,2.11,6.575,2.899,9.95c-2.409-5.023-4.111-10.324-6.153-15.483
		c-41.944-107.791-83.862-215.589-125.806-323.381C1471.071,1174.659,1456.731,1138.241,1442.711,1101.714z"/>
	<path fill="#224B9B" d="M1338.935,1119.225c16.844-4.955,33.744-9.732,50.588-14.694c16.817,64.098,33.294,128.291,49.969,192.429
		c26.686,102.891,53.344,205.789,80.037,308.68c0.823,3.267,1.967,6.472,2.437,9.841c-2.389-4.744-3.682-9.937-5.662-14.844
		c-41.611-112.868-83.202-225.751-124.806-338.626C1373.992,1214.406,1356.352,1166.86,1338.935,1119.225z"/>
	<path fill="#224B9B" d="M1395.866,1118.211c3.396,6.261,5.941,12.958,9.045,19.376c76.729,168.37,153.527,336.713,230.222,505.097
		c-21.132,0.082-42.264,0.007-63.397,0.034c-13.306-0.122-26.631,0.238-39.923-0.177c-30.66-118.626-61.484-237.212-92.206-355.817
		C1425.016,1230.556,1410.547,1174.353,1395.866,1118.211z"/>
	<path fill="#224B9B" d="M1283.365,1138.765c17.389-6.411,34.975-12.305,52.426-18.567c1.912,18.281,3.131,36.65,4.812,54.964
		c12.135,143.774,24.317,287.541,36.473,431.308c0.313,3.43,0.823,6.874,0.449,10.331c-24.855-126.977-49.996-253.9-74.953-380.856
		C1296.147,1203.557,1289.872,1171.134,1283.365,1138.765z"/>
	<path fill="#224B9A" d="M1497.008,1127.855c7.806,6.234,15.483,12.679,23.092,19.159c3.553,4.682,6.438,9.869,9.746,14.742
		c11.856,18.308,23.609,36.683,35.567,54.916c0.402,0.694,0.769,1.422,1.116,2.185c-2.402-2.157-4.029-4.975-6.003-7.486
		C1539.389,1183.507,1518.141,1155.719,1497.008,1127.855z"/>
	<path fill="#224B9B" d="M1339.527,1129.434c1.579,2.77,2.307,5.914,3.512,8.868c61.967,168.125,123.928,336.25,185.889,504.383
		c-48.716,0.034-97.433,0.095-146.142-0.027c-13.203-157.025-26.55-314.029-39.814-471.041
		C1341.869,1157.549,1340.439,1143.502,1339.527,1129.434z"/>
	<path fill="#224B9B" d="M843.21,1172.679c14.973-13.094,29.905-26.237,44.891-39.311c18.614,156.814,37.214,313.628,55.822,470.442
		c0.905,8.677,2.28,17.328,2.947,26.032c-11.55-28.748-22.698-57.666-34.104-86.475c-28.625-72.789-57.251-145.577-85.883-218.359
		c-13.476-34.159-26.774-68.385-40.386-102.483C805.247,1205.742,824.344,1189.333,843.21,1172.679z"/>
	<path fill="#224B9B" d="M1498.179,1134.049c8.12,10.114,15.735,20.649,23.691,30.912c20.976,27.577,41.965,55.148,62.947,82.719
		c1.402,1.994,3.376,3.743,3.907,6.234c6.5,29.333,12.999,58.667,19.56,87.993c-2.804-4.363-4.866-9.147-7.405-13.653
		c-33.063-62.444-66.126-124.888-99.175-187.331C1500.493,1138.643,1499.084,1136.465,1498.179,1134.049z"/>
	<path fill="#224B9B" d="M1128.341,1137.928c12.666,19.934,25.012,40.086,37.439,60.177
		c-33.213,133.701-66.31,267.437-99.495,401.145c-1.443,5.37-2.389,10.876-4.07,16.184c-0.034-3.484,0.742-6.894,1.232-10.318
		C1085.09,1449.392,1106.699,1293.653,1128.341,1137.928z"/>
	<path fill="#224B9B" d="M1496.546,1137.601c1.722,1.899,2.614,4.349,3.838,6.574c36.52,68.984,73.047,137.969,109.568,206.953
		c0.96,1.926,0.83,4.158,1.13,6.261c5.465,52.405,10.957,104.81,16.429,157.215c0.259,2.341,0.619,4.682,0.599,7.064
		c-4.553-12.223-8.5-24.692-12.822-37.01c-38.855-113.365-77.689-226.744-116.537-340.109
		C1497.954,1142.25,1496.968,1139.997,1496.546,1137.601z"/>
	<path fill="#2B5DBC" d="M858.203,1149.539c6.513-3.519,12.809-7.459,19.438-10.746c-8.752,8.126-17.961,15.783-26.883,23.732
		c-21.629,18.975-43.285,37.922-64.914,56.904c-1.688,1.695-4.172,1.878-6.37,2.457c-16.538,3.866-33.07,7.786-49.615,11.672
		c-11.944,2.729-23.82,5.826-35.819,8.296c4.315-3.076,9.202-5.234,13.727-7.97C757.912,1205.769,808.057,1177.647,858.203,1149.539
		z"/>
	<path fill="#224B9B" d="M1217.573,1171.726c21.03-10.556,41.999-21.241,63.016-31.838c9.249,146.231,18.172,292.489,27.326,438.727
		c0.749,14.462,2.015,28.918,2.552,43.38c-1.164-2.396-1.354-5.077-1.892-7.629c-26.087-126.78-52.174-253.553-78.261-380.325
		C1226.094,1213.262,1221.657,1192.531,1217.573,1171.726z"/>
	<path fill="#3D3D55" d="M1823.989,1149.226c13.741-2.096,27.475-4.247,41.244-6.153c-7.868,5.009-15.885,9.807-23.895,14.585
		C1835.621,1154.711,1829.597,1152.363,1823.989,1149.226z"/>
	<path fill="#224B9B" d="M1284.761,1159.237c25.822,131.53,51.806,263.033,77.682,394.55c5.806,29.639,11.747,59.252,17.464,88.912
		c-21.779,0.014-43.558,0.068-65.336-0.027c-9.644-155.099-19.254-310.191-28.918-465.283
		C1285.462,1171.331,1284.557,1165.301,1284.761,1159.237z"/>
	<path fill="#224B9B" d="M1168.816,1198.344c15.3-8.296,30.545-16.681,45.81-25.032c4.063,122.376,7.623,244.78,11.57,367.163
		c0.272,14.204,1.103,28.414,1.137,42.611c-0.858,4.172-0.844,8.446-0.871,12.693c-0.306-1.511-0.585-3.008-0.864-4.485
		c-0.204,0.973-0.395,1.967-0.497,2.988c-9.011-61.872-17.661-123.799-26.522-185.698c-8.664-60.919-17.348-121.832-26.005-182.751
		C1171.361,1216.665,1169.742,1207.538,1168.816,1198.344z"/>
	<path fill="#224B9B" d="M506.558,1188.203c58.476,19.356,116.864,38.991,175.333,58.367c-8.78,24.93-18.09,49.683-27.067,74.545
		c-36.956,101.217-73.905,202.44-110.847,303.657c-1.49,3.737-2.532,7.657-4.294,11.284
		c-8.677-115.815-17.144-231.651-25.753-347.473C511.499,1255.118,508.926,1221.667,506.558,1188.203z"/>
	<path fill="#053585" d="M1218.104,1188.4c1.123,4.267,1.783,8.657,2.648,12.992c-0.129,0.755-0.266,1.518-0.415,2.294
		c-0.306-0.98-0.579-1.947-0.817-2.906c-0.388,1.205-0.776,2.409-1.082,3.655C1218.322,1199.086,1217.859,1193.743,1218.104,1188.4z
		"/>
	<path fill="#224B9A" d="M1511.301,1190.006c4.655,11.917,8.392,24.174,12.611,36.255c35.03,102.204,70.019,204.414,105.062,306.611
		c0.912,2.436,0.395,5.077,0.422,7.622c-0.415,11.924-0.66,23.855-1.218,35.772c-2.219-5.458-3.498-11.243-5.322-16.831
		C1585.668,1436.29,1548.583,1313.118,1511.301,1190.006z"/>
	<path fill="#224B9B" d="M500.017,1205.844c1.456-4.036,2.396-8.262,4.186-12.169c9.726,130.564,19.315,261.134,29,391.691
		c1.436,18.376,2.539,36.786,4.22,55.134c-11.631-0.088-23.262-0.048-34.894-0.02c-2.382,0-4.744,0.368-7.078,0.783
		c-20.989,0.293-42.013-0.082-63.016-0.116c-25.005-0.116-50.01-0.17-75.014-0.245
		C404.837,1495.849,452.505,1350.87,500.017,1205.844z"/>
	<path fill="#224B9B" d="M1218.438,1204.435c0.306-1.245,0.694-2.45,1.082-3.655c0.238,0.96,0.51,1.926,0.817,2.906
		c0.15-0.776,0.286-1.538,0.415-2.294c7.323,34.342,14.183,68.787,21.336,103.17c23.201,112.712,46.375,225.417,69.583,338.129
		c-26.55,0.041-53.106,0.061-79.656-0.014c-3.314-108.03-6.731-216.052-10.079-324.082c-0.238-8.99-0.715-17.988-0.715-26.972
		c1.089-5.302,0.919-10.753,0.47-16.109c-0.313,0.987-0.606,1.994-0.844,3.022c-0.755-9.78-0.585-19.601-1.103-29.388
		C1219.363,1234.245,1218.751,1219.333,1218.438,1204.435z"/>
	<path fill="#224B9B" d="M1165.338,1210.941c0.524-1.844,0.538-3.9,1.681-5.492c20.622,145.754,41.441,291.488,62.192,437.229
		c-56.877-0.327-113.746-0.749-170.623-1.109C1094.122,1498.013,1129.771,1354.484,1165.338,1210.941z"/>
	<path fill="#214B9A" d="M1481.974,1210.417c10.522,26.128,20.343,52.528,30.688,78.723
		c37.425,96.214,74.851,192.429,112.297,288.644c1.266,3.532,3.097,6.928,3.451,10.726c1.824,14.034,3.818,28.047,5.656,42.074
		c-2.43-4.907-3.777-10.263-5.792-15.334c-41.039-113.44-82.052-226.887-123.084-340.327
		C1497.546,1253.39,1489.324,1232.053,1481.974,1210.417z"/>
	<path fill="#224B9B" d="M685.259,1246.917c32.689-7.908,65.459-15.517,98.202-23.215c-7.643,135.137-15.306,270.275-23.065,405.405
		c-2.042-7.643-3.11-15.517-4.778-23.242C732.145,1486.218,708.794,1366.551,685.259,1246.917z"/>
	<path fill="#224B9B" d="M785.918,1228.528c10.399,25.57,20.247,51.384,30.449,77.036c43.769,111.337,87.564,222.654,131.34,333.984
		c-61.702,0.048-123.404-0.014-185.113,0.034c4.744-86.584,9.841-173.148,14.687-259.719
		C780.201,1329.418,782.985,1278.966,785.918,1228.528z"/>
	<path fill="#224B9B" d="M222.876,1388.112c34.186-52.446,68.236-104.98,102.483-157.386c9.549,136.73,19.206,273.46,28.694,410.196
		c-52.82,0.088-105.641,0.537-158.454,0.653c-29.272,0.095-58.537,0.259-87.809,0.449c-1.729-0.02-3.464,0.048-5.179-0.163
		c-7.051-1.313-14.238-0.49-21.357-0.708c-7.527-0.204-15.095,0.327-22.589-0.599
		C113.335,1556.366,168.156,1472.273,222.876,1388.112z"/>
	<path fill="#224B9B" d="M668.381,1291.795c5.016-13.55,9.76-27.21,14.973-40.685c20.241,102.884,40.318,205.796,60.504,308.687
		c5.241,26.529,10.304,53.099,15.66,79.608c-10.331,0.497-20.69,0.157-31.028,0.47c-43.102,0.299-86.203,0.81-129.305,1.116
		c-14.197-0.048-28.414,0.565-42.598,0.259c-5.077-1.103-10.311-0.96-15.463-0.613c13.802-38.371,27.945-76.634,41.876-114.958
		C611.456,1447.717,639.912,1369.75,668.381,1291.795z"/>
	<path fill="#093585" d="M1043.078,1267.008c-0.347-5.138-0.606-10.345,0.524-15.402c0.327,4.335,0.449,8.705,0.388,13.06
		C1043.724,1265.45,1043.418,1266.232,1043.078,1267.008z"/>
	<path fill="#09338A" d="M1220.847,1278.537c0.238-1.028,0.531-2.035,0.844-3.022c0.449,5.356,0.619,10.808-0.47,16.109
		C1220.963,1287.269,1220.724,1282.893,1220.847,1278.537z"/>
	<path fill="#063384" d="M1051.374,1411.265c0.211-1.035,0.476-2.049,0.755-3.036c0.531,4.458,0.803,9.038-0.395,13.435
		C1051.319,1418.214,1051.387,1414.729,1051.374,1411.265z"/>
	<path fill="#083586" d="M1048.563,1448.065c-0.47-4.914-0.599-9.916,0.517-14.748c0.279,4.111,0.435,8.256,0.354,12.394
		C1049.148,1446.485,1048.856,1447.268,1048.563,1448.065z"/>
	<path fill="#073588" d="M1049.951,1493.725c-0.449-5.152-0.646-10.386,0.463-15.47c0.313,4.117,0.436,8.269,0.381,12.414
		C1050.53,1491.677,1050.231,1492.691,1049.951,1493.725z"/>
	<path fill="#063586" d="M1054.784,1523.548c0.225-1.041,0.517-2.049,0.837-3.022c0.415,5.588,0.681,11.277-0.47,16.817
		C1054.906,1532.75,1054.654,1528.135,1054.784,1523.548z"/>
	<path fill="#093487" d="M1051.319,1539.311c-0.422-5.159-0.687-10.399,0.47-15.476c0.313,4.124,0.429,8.289,0.374,12.434
		C1051.912,1537.276,1051.612,1538.283,1051.319,1539.311z"/>
	<path fill="#09398A" d="M1226.462,1595.779c0.027-4.247,0.014-8.521,0.871-12.693c0.599,7.657,0.368,15.361,0.878,23.038
		c0.048,4.131,0.497,8.29,0.163,12.414c-1.089-8.085-2.178-16.177-3.274-24.256c0.102-1.021,0.293-2.015,0.497-2.988
		C1225.876,1592.771,1226.155,1594.268,1226.462,1595.779z"/>
	<path fill="#08337D" d="M502.529,1640.48c11.631-0.027,23.262-0.068,34.894,0.02c-0.197,0.238-0.592,0.708-0.789,0.946
		c-13.721,0-27.462,0.109-41.182-0.184C497.785,1640.848,500.146,1640.48,502.529,1640.48z"/>
	<path fill="#123A87" d="M58.664,1640.555c7.493,0.925,15.061,0.395,22.589,0.599c7.119,0.218,14.306-0.606,21.357,0.708
		c-14.98,0.368-29.987,0.204-44.98,0.272C57.888,1641.739,58.405,1640.949,58.664,1640.555z"/>
	<path fill="#09337D" d="M541.125,1640.636c5.152-0.347,10.386-0.49,15.463,0.613c-5.309,0.252-10.631,0.279-15.932,0.122
		L541.125,1640.636z"/>
</g>
</svg>
